<?xml version="1.0" encoding="utf-8"?>
<svg xmlns="http://www.w3.org/2000/svg" xmlns:xlink="http://www.w3.org/1999/xlink" version="1.1" style="width:0;height:0;position:absolute;overflow:hidden;">
  <defs>
<symbol viewBox="0 0 1536 1536" aria-labelledby="hvsi-awesome-envelope-square-title" id="si-awesome-envelope-square"><title id="hvsi-awesome-envelope-square-title">icon envelope-square</title><path d="M1248 0q119 0 203.5 84.5T1536 288v960q0 119-84.5 203.5T1248 1536H288q-119 0-203.5-84.5T0 1248V288Q0 169 84.5 84.5T288 0h960zm32 1056V620q-31 35-64 55-34 22-132.5 85T932 859q-98 69-164 69t-164-69q-46-32-141.5-92.5T320 674q-12-8-33-27t-31-27v436q0 40 28 68t68 28h832q40 0 68-28t28-68zm0-573q0-41-27.5-70t-68.5-29H352q-40 0-68 28t-28 68q0 37 30.5 76.5T354 621q47 32 137.5 89T621 793q3 2 17 11.5t21 14 21 13 23.5 13T725 854t22.5 7.5T768 864t20.5-2.5T811 854t21.5-9.5 23.5-13 21-13 21-14 17-11.5l267-174q35-23 66.5-62.5T1280 483z"/></symbol>
<symbol viewBox="0 0 1536 1536" aria-labelledby="insi-awesome-facebook-square-title" id="si-awesome-facebook-square"><title id="insi-awesome-facebook-square-title">icon facebook-square</title><path d="M1248 0q119 0 203.5 84.5T1536 288v960q0 119-84.5 203.5T1248 1536h-188V941h199l30-232h-229V561q0-56 23.5-84t91.5-28l122-1V241q-63-9-178-9-136 0-217.5 80T820 538v171H620v232h200v595H288q-119 0-203.5-84.5T0 1248V288Q0 169 84.5 84.5T288 0h960z"/></symbol>
<symbol viewBox="0 0 1536 1536" aria-labelledby="mssi-awesome-instagram-title" id="si-awesome-instagram"><title id="mssi-awesome-instagram-title">icon instagram</title><path d="M1024 768q0-106-75-181t-181-75-181 75-75 181 75 181 181 75 181-75 75-181zm138 0q0 164-115 279t-279 115-279-115-115-279 115-279 279-115 279 115 115 279zm108-410q0 38-27 65t-65 27-65-27-27-65 27-65 65-27 65 27 27 65zM768 138q-7 0-76.5-.5t-105.5 0-96.5 3-103 10T315 169q-50 20-88 58t-58 88q-11 29-18.5 71.5t-10 103-3 96.5 0 105.5.5 76.5-.5 76.5 0 105.5 3 96.5 10 103T169 1221q20 50 58 88t88 58q29 11 71.5 18.5t103 10 96.5 3 105.5 0 76.5-.5 76.5.5 105.5 0 96.5-3 103-10 71.5-18.5q50-20 88-58t58-88q11-29 18.5-71.5t10-103 3-96.5 0-105.5-.5-76.5.5-76.5 0-105.5-3-96.5-10-103T1367 315q-20-50-58-88t-88-58q-29-11-71.5-18.5t-103-10-96.5-3-105.5 0-76.5.5zm768 630q0 229-5 317-10 208-124 322t-322 124q-88 5-317 5t-317-5q-208-10-322-124T5 1085q-5-88-5-317t5-317q10-208 124-322T451 5q88-5 317-5t317 5q208 10 322 124t124 322q5 88 5 317z"/></symbol>
<symbol viewBox="0 0 1536 1536" aria-labelledby="wnsi-awesome-twitter-square-title" id="si-awesome-twitter-square"><title id="wnsi-awesome-twitter-square-title">icon twitter-square</title><path d="M1280 482q-56 25-121 34 68-40 93-117-65 38-134 51-61-66-153-66-87 0-148.5 61.5T755 594q0 29 5 48-129-7-242-65T326 422q-29 50-29 106 0 114 91 175-47-1-100-26v2q0 75 50 133.5T461 885q-29 8-51 8-13 0-39-4 21 63 74.5 104t121.5 42q-116 90-261 90-26 0-50-3 148 94 322 94 112 0 210-35.5t168-95 120.5-137 75-162T1176 618q0-18-1-27 63-45 105-109zm256-194v960q0 119-84.5 203.5T1248 1536H288q-119 0-203.5-84.5T0 1248V288Q0 169 84.5 84.5T288 0h960q119 0 203.5 84.5T1536 288z"/></symbol>
<symbol viewBox="0 0 1536 1536" aria-labelledby="yjsi-awesome-youtube-square-title" id="si-awesome-youtube-square"><title id="yjsi-awesome-youtube-square-title">icon youtube-square</title><path d="M919 1175v-157q0-50-29-50-17 0-33 16v224q16 16 33 16 29 0 29-49zm184-122h66v-34q0-51-33-51t-33 51v34zM532 787v70h-80v423h-74V857h-78v-70h232zm201 126v367h-67v-40q-39 45-76 45-33 0-42-28-6-16-6-54V913h66v270q0 24 1 26 1 15 15 15 20 0 42-31V913h67zm252 111v146q0 52-7 73-12 42-53 42-35 0-68-41v36h-67V787h67v161q32-40 68-40 41 0 53 42 7 21 7 74zm251 129v9q0 29-2 43-3 22-15 40-27 40-80 40-52 0-81-38-21-27-21-86v-129q0-59 20-86 29-38 80-38t78 38q21 28 21 86v76h-133v65q0 51 34 51 24 0 30-26 0-1 .5-7t.5-16.5V1153h68zM785 329v156q0 51-32 51t-32-51V329q0-52 32-52t32 52zm533 713q0-177-19-260-10-44-43-73.5t-76-34.5q-136-15-412-15-275 0-411 15-44 5-76.5 34.5T238 782q-20 87-20 260 0 176 20 260 10 43 42.5 73t75.5 35q137 15 412 15t412-15q43-5 75.5-35t42.5-73q20-84 20-260zM563 391l90-296h-75l-51 195-53-195h-78l24 69 23 69q35 103 46 158v201h74V391zm289 81V342q0-58-21-87-29-38-78-38-51 0-78 38-21 29-21 87v130q0 58 21 87 27 38 78 38 49 0 78-38 21-27 21-87zm181 120h67V222h-67v283q-22 31-42 31-15 0-16-16-1-2-1-26V222h-67v293q0 37 6 55 11 27 43 27 36 0 77-45v40zm503-304v960q0 119-84.5 203.5T1248 1536H288q-119 0-203.5-84.5T0 1248V288Q0 169 84.5 84.5T288 0h960q119 0 203.5 84.5T1536 288z"/></symbol>
  </defs>
</svg>
