<?xml version="1.0" encoding="UTF-8" standalone="no"?>
<!DOCTYPE svg  PUBLIC '-//W3C//DTD SVG 1.1//EN'  'http://www.w3.org/Graphics/SVG/1.1/DTD/svg11.dtd'>
<svg version="1.1" xmlns="http://www.w3.org/2000/svg">
<defs>
<font id="Antonio-Light" horiz-adv-x="830">
<font-face font-family="Antonio" units-per-em="2048" bbox="-69 -596 1923 2302" underline-thickness="0" font-stretch="ultra-condensed" cap-height="1760" ascent="1638" font-weight="300" descent="-410" unicode-range="U+0020-0302" underline-position="0" x-height="1500" panose-1="2 0 3 3 0 0 0 0 0 0"/>
<missing-glyph/>
<glyph glyph-name="space" unicode=" " horiz-adv-x="460"/>
<glyph glyph-name="exclam" unicode="!" d="M156 0h186v202h-186v-202zM220 368h60l65 1392h-188z" horiz-adv-x="501"/>
<glyph glyph-name="quotedbl" unicode='&quot;' d="M196 1125h64l92 635h-156v-635zM487 1125h64l93 635h-157v-635z" horiz-adv-x="771"/>
<glyph glyph-name="numbersign" unicode="#" d="M22 0h111l131 670h216l-130 -670h102l133 670h213v97h-194l54 274h183v97h-163l123 622h-103l-125 -622h-216l125 622h-112l-123 -622h-216v-97h197l-54 -274h-186v-97h166zM282 765l54 270h219l-53 -270h-220z" horiz-adv-x="829"/>
<glyph glyph-name="dollar" unicode="$" d="M396 -221h107v288h-107v-288zM354 1490h107v293h-107v-293zM454 28q139 0 208 92.5t69 252.5q0 124 -44.5 230t-147.5 206l-105 103q-87 86 -115 147.5t-28 138.5q0 231 135 231q70 0 102.5 -73t32.5 -230v-121h140v94q0 131 -19.5 223t-57 144.5t-86.5 76t-115 23.5 q-130 0 -206 -84.5t-76 -247.5q0 -118 42.5 -218t141.5 -193l111 -105q91 -86 116 -159.5t25 -176.5q0 -122 -31 -170t-105 -48q-142 0 -142 317v103h-149v-129q0 -223 73.5 -325t230.5 -102z"/>
<glyph glyph-name="percent" unicode="%" d="M429 718q-80 0 -108.5 45t-28.5 173v500q0 123 29 166.5t108 43.5q80 0 108.5 -43.5t28.5 -166.5v-500q0 -128 -28.5 -173t-108.5 -45zM429 581q86 0 137.5 18.5t83.5 70t43 130.5t11 212v352q0 248 -54.5 333.5t-220.5 85.5q-68 0 -114 -12.5t-78 -40t-49.5 -78.5 t-25 -118.5t-7.5 -169.5v-352q0 -106 7.5 -176t24.5 -122t49.5 -79.5t78 -40.5t114.5 -13zM1649 117q-80 0 -108.5 45t-28.5 173v500q0 123 28.5 166.5t108.5 43.5q79 0 108 -43.5t29 -166.5v-500q0 -128 -28.5 -173t-108.5 -45zM1649 -20q69 0 114.5 13t78 40.5t49.5 79.5 t24.5 122t7.5 176v352q0 128 -11 204.5t-43 126.5t-83.5 68.5t-136.5 18.5q-69 0 -114.5 -12.5t-78 -40t-50 -78t-25 -118t-7.5 -169.5v-352q0 -133 11 -212t43 -130.5t83.5 -70t137.5 -18.5zM607 0h148l722 1760h-140z" horiz-adv-x="2078"/>
<glyph glyph-name="ampersand" unicode="&amp;" d="M338 -20q59 0 105.5 21.5t77.5 62t51 86t35 103.5l103 -253h127l-155 368q25 72 40 110.5t45.5 100.5t64.5 111l-61 107q-74 -100 -151 -281l-172 409q52 74 81.5 120t65 114t51.5 135.5t16 139.5q0 89 -9.5 148.5t-34.5 107.5t-73 70.5t-121 22.5q-126 0 -192 -85.5 t-66 -254.5q0 -112 145 -484q-62 -88 -95 -141t-71.5 -133.5t-55.5 -166t-17 -185.5q0 -183 72.5 -268t193.5 -85zM354 105q-78 0 -116 62.5t-38 166.5q0 121 46 259.5t119 232.5l187 -450q-55 -147 -79 -187q-48 -84 -119 -84zM399 1057q-104 296 -104 388q0 98 13 137 q27 85 117 85q70 0 92 -48.5t22 -162.5t-36.5 -209t-103.5 -190z"/>
<glyph glyph-name="quotesingle" unicode="&apos;" d="M184 1125h33l65 635h-158z" horiz-adv-x="404"/>
<glyph glyph-name="parenleft" unicode="(" d="M448 -117v113h-9q-27 0 -38.5 0.5t-29 4.5t-23.5 10.5t-15.5 21.5t-12 34.5t-6.5 53t-4.5 73t-0.5 97.5v1083q0 58 0.5 97.5t4.5 73t6.5 53t12 34.5t15.5 21.5t23.5 10.5t29 4.5t38.5 0.5h3h3h3v114q-63 0 -104 -5t-76 -21.5t-53.5 -43.5t-32 -75t-18 -111t-4.5 -157 v-1075q0 -94 4.5 -157t18 -111t32 -74.5t53.5 -43t75.5 -21.5t104.5 -5z" horiz-adv-x="546"/>
<glyph glyph-name="parenright" unicode=")" d="M98 -119q64 0 104.5 5t75.5 21.5t53.5 43t32 74.5t18 111t4.5 157v1077q0 94 -4.5 157t-18 111t-32 75t-53.5 43.5t-76 21.5t-104 5v-114h9q27 0 38.5 -0.5t29 -4.5t23.5 -10.5t15.5 -21.5t12 -34.5t6.5 -53t4.5 -73t0.5 -97.5v-1085q0 -58 -0.5 -97.5t-4.5 -73t-6.5 -53 t-12 -34.5t-15.5 -21.5t-23.5 -10.5t-29 -4.5t-38.5 -0.5h-9v-113z" horiz-adv-x="546"/>
<glyph glyph-name="asterisk" unicode="*" d="M414 1086h133l-20 272l224 -177l68 117l-250 140l250 132l-68 116l-224 -172l20 269h-133l24 -270l-229 163l-68 -116l250 -122l-242 -130l67 -118l222 172z" horiz-adv-x="960"/>
<glyph glyph-name="plus" unicode="+" d="M322 576h118v266h234v106h-234v260h-118v-260h-230v-106h230v-266z" horiz-adv-x="766"/>
<glyph glyph-name="comma" unicode="," d="M162 -350h77l104 359v164h-200v-173h115z" horiz-adv-x="437"/>
<glyph glyph-name="hyphen" unicode="-" d="M109 842h478v116h-478v-116z" horiz-adv-x="696"/>
<glyph glyph-name="period" unicode="." d="M174 0h154v164h-154v-164z" horiz-adv-x="532"/>
<glyph glyph-name="slash" unicode="/" d="M88 0h134l451 1783h-135z" horiz-adv-x="743"/>
<glyph glyph-name="zero" unicode="0" d="M414 102q-28 0 -48.5 9t-35 29.5t-23.5 48t-14 72t-7 92.5t-2 117v858q0 185 25 257t105 72q36 0 60 -13t38.5 -35.5t22 -66.5t9.5 -91t2 -124v-857q0 -71 -1.5 -117.5t-6 -92t-13.5 -72t-23.5 -48t-36 -30t-51.5 -8.5zM417 -21q67 0 114.5 19t79.5 55.5t50.5 98 t26 138.5t7.5 185v841q0 128 -12 211.5t-43.5 143.5t-85.5 86t-137 26q-159 0 -220 -107.5t-61 -359.5v-841q0 -268 61 -382t220 -114z" horiz-adv-x="831"/>
<glyph glyph-name="one" unicode="1" d="M409 0h149v1760h-89q-39 -93 -135 -160t-183 -79v-93q58 0 140.5 32.5t117.5 73.5v-1534z"/>
<glyph glyph-name="two" unicode="2" d="M179 0h515v121h-373l125 274l126 274q78 171 112 310t34 331q0 247 -59 359t-192 114q-154 2 -222.5 -104.5t-68.5 -355.5v-258h141v254q0 182 32 258.5t101 78.5q52 1 78.5 -26t38.5 -101.5t12 -223.5q0 -180 -21.5 -290t-101.5 -286l-138 -304l-139 -304v-121z"/>
<glyph glyph-name="three" unicode="3" d="M406 -20q166 0 243 119t77 369q0 158 -44.5 282t-133.5 164q175 66 175 407q0 231 -75 345t-241 114q-163 0 -232 -112.5t-69 -346.5v-34h149v31q0 102 10.5 170t31.5 103.5t46 49.5t61 14q39 0 66 -12t52 -45.5t38 -102.5t13 -173q0 -92 -8.5 -153.5t-23.5 -99 t-43.5 -56.5t-58.5 -25t-79 -6h-37v-128h39q77 0 122.5 -33t68.5 -117t23 -232q0 -211 -33.5 -289.5t-130.5 -78.5q-99 0 -130.5 74.5t-31.5 295.5v43h-150v-43q0 -255 70.5 -374.5t235.5 -119.5z"/>
<glyph glyph-name="four" unicode="4" d="M485 0h135v352h154v116h-154v1292h-144l-381 -1311v-97h390v-352zM217 468l268 1000v-1000h-268z"/>
<glyph glyph-name="five" unicode="5" d="M430 -20q140 0 198 87.5t58 253.5v507q0 103 -11.5 176.5t-30 116t-48.5 66.5t-61.5 30.5t-75.5 3.5q-43 -2 -83 -27.5t-53 -67.5v498h325v136h-460v-850l124 -22q0 100 34 151.5t87 51.5q61 0 86.5 -53t25.5 -169v-595q0 -93 -29.5 -132.5t-89.5 -39.5q-63 0 -91 38 t-28 123v196h-143v-168q0 -52 6 -94t24 -84t47 -70t77 -45.5t112 -17.5z"/>
<glyph glyph-name="six" unicode="6" d="M442 -20q89 0 149 29.5t93.5 91t47 143t13.5 198.5v117q0 307 -65.5 429t-238.5 114q-95 -5 -157 -89v242q0 103 3 165t11 112.5t25.5 74.5t43 36t66.5 12q30 0 50 -6.5t34 -26t22 -43.5t12.5 -71.5t6 -95t1.5 -129.5v-31h152v32q-1 78 -4 133.5t-10 111.5t-19.5 92.5 t-32.5 70t-48.5 52t-67 29t-89.5 10.5q-76 0 -129.5 -20.5t-87.5 -58.5t-53.5 -104t-26.5 -144.5t-7 -191.5v-758q0 -70 2.5 -123t10.5 -110t21.5 -98.5t36.5 -80t55 -62.5t77.5 -38t102.5 -14zM442 107q-37 0 -63.5 9t-44 33t-27.5 51t-15 78.5t-6.5 98.5t-1.5 127v422 q3 1 28.5 15t62 25.5t78.5 11.5q86 0 114 -90.5t28 -340.5v-101q0 -141 -13.5 -212t-45 -99t-94.5 -28z"/>
<glyph glyph-name="seven" unicode="7" d="M236 0h155q36 561 191 1175q81 319 138 461l8 17v107h-633v-117h503q-76 -172 -164 -478q-149 -545 -198 -1165z"/>
<glyph glyph-name="eight" unicode="8" d="M421 -20q152 0 223.5 103t76.5 330v21q0 204 -35.5 322t-114.5 175q77 53 111.5 151.5t34.5 264.5q0 228 -70 332t-223 104q-155 0 -225.5 -104t-70.5 -332q0 -170 32.5 -269.5t104.5 -150.5q-82 -55 -118.5 -172t-36.5 -321q0 -8 0.5 -15t0.5 -16q7 -222 80.5 -322.5 t229.5 -100.5zM423 103q-85 0 -124 77t-40 248v42q4 209 43 304t121 95q50 0 82 -40.5t48.5 -125.5t19.5 -221v-14v-14.5v-14.5q-1 -176 -36.5 -256t-113.5 -80zM421 982q-76 0 -110 87t-34 279q0 160 34 232.5t110 72.5q77 0 112 -71t35 -229q0 -195 -35 -283t-112 -88z "/>
<glyph glyph-name="nine" unicode="9" d="M418 -20q54 0 95.5 13.5t71 35t49.5 61.5t32 80.5t18 105t8 122.5t2 144v712q0 63 -1.5 108t-6 98.5t-13 91t-23 77t-36.5 65.5t-51.5 47.5t-70 31.5t-90.5 10q-45 0 -82.5 -9t-66 -23.5t-50.5 -39.5t-37 -51t-25.5 -64.5t-16.5 -73t-9.5 -84t-4.5 -89.5t-1 -97v-26 q0 -119 6.5 -201.5t24 -155.5t49 -115.5t82.5 -67t123 -24.5q99 0 150 50v-189q0 -235 -3 -273q-8 -106 -51 -133q-22 -14 -59 -14q-32 0 -52 5t-36.5 21.5t-25.5 40.5t-15 70t-7.5 101t-2.5 142v25h-143q0 -19 1 -35q2 -106 9 -180t24.5 -136.5t47.5 -99.5t76 -57t111 -20z M408 776q-34 0 -58 8.5t-41 32.5t-26.5 53t-15 83t-7 110t-1.5 145v49q0 75 1.5 121t6 96.5t14 79t25 53.5t40 35.5t57.5 10.5q32 0 55 -10.5t38.5 -35t25 -54t14.5 -79t6.5 -98t1.5 -121.5v-452q-60 -27 -136 -27z"/>
<glyph glyph-name="colon" unicode=":" d="M179 312h183v231h-183v-231zM179 1048h183v231h-183v-231z" horiz-adv-x="555"/>
<glyph glyph-name="semicolon" unicode=";" d="M200 0h77l104 359v164h-200v-173h115zM179 1048h183v231h-183v-231z" horiz-adv-x="561"/>
<glyph glyph-name="less" unicode="&lt;" d="M642 288v160l-468 310l468 293v168l-579 -396v-135z" horiz-adv-x="730"/>
<glyph glyph-name="equal" unicode="=" d="M94 601h534v128h-534v-128zM94 896h534v129h-534v-129z" horiz-adv-x="722"/>
<glyph glyph-name="greater" unicode="&gt;" d="M84 288l579 396v134l-579 401v-160l468 -310l-468 -293v-168z" horiz-adv-x="730"/>
<glyph glyph-name="question" unicode="?" d="M228 494h125v256q153 43 211.5 170.5t58.5 393.5q0 204 -10 271q-21 134 -104 175q-46 23 -117 23q-44 0 -79.5 -9t-59.5 -27.5t-42 -39t-28 -52t-16.5 -56t-8 -62.5t-2 -60.5t0.5 -60t1 -51.5v-205h132v215q0 169 21 227.5t85 58.5q58 0 76.5 -63.5t18.5 -228.5 q0 -73 -1 -119.5t-5 -99.5t-11.5 -85.5t-21 -69t-32.5 -60t-46.5 -47.5t-63 -42.5t-82.5 -35.5v-316zM227 0h126v299h-126v-299z" horiz-adv-x="708"/>
<glyph glyph-name="at" unicode="@" d="M1161 121l-18 100q-148 -54 -286.5 -68t-260.5 16.5t-212.5 104t-143 205t-52.5 308.5q0 133 17 240.5t56.5 200t101.5 154.5t155 97t214 35q68 0 124.5 -13t98.5 -33.5t75.5 -54.5t56 -69t38.5 -84t24.5 -91.5t13.5 -100t6.5 -101.5t1.5 -103q0 -396 -119 -396 q-43 0 -60 42.5t-17 130.5v596q-145 47 -256 47q-62 0 -113.5 -15t-88.5 -40.5t-65.5 -62.5t-46 -78.5t-28.5 -91t-15.5 -96.5t-4.5 -99q0 -56 6.5 -105.5t19 -89t29 -73.5t37.5 -59t44.5 -44t49 -31.5t52 -18.5t52.5 -6q82 -1 149 46.5t90 127.5q12 -77 56 -121.5 t109 -44.5q60 0 105.5 38.5t71.5 106.5t39 153.5t13 186.5q0 178 -26.5 310t-87.5 233.5t-167.5 153.5t-259.5 52q-151 0 -268 -39.5t-194 -110.5t-126 -175.5t-70 -227t-21 -273.5q0 -180 53.5 -323t152.5 -235t234.5 -138.5t304 -39.5t356.5 67zM649 467q-20 1 -38 7 t-35 19t-32 31.5t-27.5 45.5t-21 61t-13.5 78.5t-5 96.5q0 85 13 151.5t34 109t52.5 71t63 41.5t72 17t73 1.5t71.5 -9.5v-560q-18 -65 -80 -114.5t-127 -46.5z" horiz-adv-x="1340"/>
<glyph glyph-name="A" unicode="A" d="M35 0h141l53 362h352l58 -362h144l-313 1760h-152zM248 473l149 1003h2l162 -1003h-313z" horiz-adv-x="817"/>
<glyph glyph-name="B" unicode="B" d="M166 0h302q91 0 150 28t93 91t48 149.5t16 218.5v31q0 168 -29.5 279.5t-107.5 149.5q69 45 91 135t22 261v23q-1 90 -9 149.5t-28.5 109.5t-57.5 78t-94 42.5t-139 14.5h-257v-1760zM315 128v756h161q89 0 119 -76.5t31 -271.5v-16q0 -96 -4.5 -159.5t-14 -111 t-27.5 -73t-43.5 -37t-63.5 -11.5h-158zM315 1004v625h112q41 0 66.5 -5.5t48.5 -21.5t34.5 -47.5t18 -81t7.5 -124.5v-14q0 -81 -2.5 -133t-10 -91t-16.5 -58.5t-28.5 -31.5t-39.5 -14.5t-56 -2.5h-134z" horiz-adv-x="868"/>
<glyph glyph-name="C" unicode="C" d="M448 -20q76 0 130 25t87 69t52 118t26 157.5t7 202.5v140h-150v-141q0 -255 -29.5 -352t-123.5 -97q-98 0 -130 97.5t-32 352.5v706q0 208 36.5 304t131.5 96q47 0 77 -24.5t45 -80t20 -122t5 -174.5v-170h151v152q0 68 -1 112t-5 101.5t-13 94t-23 78.5t-36 67.5t-52 48 t-72 32.5t-95 10q-59 0 -106 -14t-80 -38.5t-57 -63t-38 -81t-22.5 -100t-11.5 -111.5t-3 -124v-701q0 -118 7.5 -202.5t28 -157.5t55.5 -117t89.5 -68.5t131.5 -24.5z" horiz-adv-x="868"/>
<glyph glyph-name="D" unicode="D" d="M314 128v1508h132q94 0 138.5 -85t44.5 -277v-755q0 -97 -8 -165.5t-22.5 -112.5t-38.5 -69t-53 -34.5t-70 -9.5h-123zM166 0h265q191 0 269 114.5t78 389.5v754q0 98 -8 170.5t-30 138t-59.5 106t-98.5 64t-145 23.5h-271v-1760z" horiz-adv-x="914"/>
<glyph glyph-name="E" unicode="E" d="M166 0h462v118h-313v717h297v121h-297v688h316v116h-465v-1760z" horiz-adv-x="716"/>
<glyph glyph-name="F" unicode="F" d="M166 0h148v886h297v119h-297v639h314v116h-462v-1760z" horiz-adv-x="695"/>
<glyph glyph-name="G" unicode="G" d="M419 -20q79 0 129 30t87 92l16 -102h98v890h-299v-127h151v-222q0 -245 -32 -342t-124 -97q-96 0 -128 96t-32 345v718q0 220 36 308.5t130 88.5q86 0 116 -68.5t30 -217.5v-272h152v147q0 65 -1.5 110t-5.5 100t-13 92t-23 77.5t-36 66.5t-51.5 48t-70.5 32t-92 10 q-82 0 -141 -28t-93.5 -73.5t-54 -118.5t-25.5 -145.5t-6 -172.5v-713q0 -293 67.5 -422.5t215.5 -129.5z" horiz-adv-x="890"/>
<glyph glyph-name="H" unicode="H" d="M166 0h149v886h322v-886h149v1760h-149v-762h-322v762h-149v-1760z" horiz-adv-x="952"/>
<glyph glyph-name="I" unicode="I" d="M168 0h149v1760h-149v-1760z" horiz-adv-x="485"/>
<glyph glyph-name="J" unicode="J" d="M361 -20q144 0 206.5 105t62.5 335v1340h-149v-1342v-23q0 -56 -0.5 -82.5t-4 -68.5t-11 -61.5t-21.5 -41.5t-36 -30.5t-53 -8.5q-23 0 -41.5 5t-31.5 18.5t-22.5 25.5t-15 36.5t-9 41t-5 50t-1.5 52v57.5v14v138h-151v-151q0 -215 62.5 -312t220.5 -97z" horiz-adv-x="784"/>
<glyph glyph-name="K" unicode="K" d="M166 0h151v860l366 -860h154l-385 891l362 869h-144l-355 -867v867h-149v-1760z" horiz-adv-x="854"/>
<glyph glyph-name="L" unicode="L" d="M166 0h461v118h-312v1642h-149v-1760z" horiz-adv-x="643"/>
<glyph glyph-name="M" unicode="M" d="M166 0h136v754l-23 709l260 -1425h142l251 1425l-23 -709v-754h135v1760h-167l-267 -1478l-277 1478h-167v-1760z" horiz-adv-x="1204"/>
<glyph glyph-name="N" unicode="N" d="M166 0h140v850l-10 476l405 -1326h116v1760h-130v-755l15 -606l-432 1361h-104v-1760z" horiz-adv-x="983"/>
<glyph glyph-name="O" unicode="O" d="M447 102q-51 0 -81.5 19t-49 69.5t-25 126t-6.5 202.5v762q0 204 36 290.5t133 86.5q91 0 121.5 -84t30.5 -294v-761q0 -126 -6.5 -202.5t-25 -126.5t-48.5 -69t-79 -19zM447 -20q76 0 130 21.5t88.5 61.5t54.5 108t27.5 149.5t7.5 198.5v749q0 74 -2 124.5t-8.5 109.5 t-19 97t-34.5 76t-54 59.5t-78 35t-105 13.5t-106 -13t-80.5 -35.5t-57 -59.5t-38 -77t-22.5 -96t-11 -109.5t-3 -124.5v-749q0 -116 8 -198t28 -150t55.5 -108t89.5 -61.5t130 -21.5z" horiz-adv-x="891"/>
<glyph glyph-name="P" unicode="P" d="M166 0h149v689h148q76 0 130.5 21.5t90 62.5t56.5 109t29 150.5t8 198.5v18q0 63 -1.5 108.5t-6 97t-14 88t-24.5 73.5t-38 61.5t-54 44.5t-73 29t-94 9h-306v-1760zM315 815v821h165q89 0 119 -84.5t29 -288.5v-34q0 -239 -31.5 -326.5t-123.5 -87.5h-158z" horiz-adv-x="847"/>
<glyph glyph-name="Q" unicode="Q" d="M622 -389l98 52l-202 364l-109 -44zM447 102q-51 0 -81.5 19t-49 69.5t-25 126t-6.5 202.5v762q0 204 36 290.5t133 86.5q91 0 121.5 -84t30.5 -294v-761q0 -126 -6.5 -202.5t-25 -126.5t-48.5 -69t-79 -19zM447 -20q76 0 130 21.5t88.5 61.5t54.5 108t27.5 149.5 t7.5 198.5v749q0 74 -2 124.5t-8.5 109.5t-19 97t-34.5 76t-54 59.5t-78 35t-105 13.5t-106 -13t-80.5 -35.5t-57 -59.5t-38 -77t-22.5 -96t-11 -109.5t-3 -124.5v-749q0 -116 8 -198t28 -150t55.5 -108t89.5 -61.5t130 -21.5z" horiz-adv-x="891"/>
<glyph glyph-name="R" unicode="R" d="M166 0h149v868l158 -10q111 0 133.5 -50t22.5 -234v-9v-8q0 -360 3 -443.5t19 -113.5h148q-15 41 -18.5 69.5t-3.5 94.5q0 158 -2.5 264t-9.5 194t-17.5 140t-29.5 89t-43 52.5t-59 21.5q89 24 125.5 123.5t36.5 277.5q0 71 -2.5 120t-10 98.5t-21.5 80.5t-37 59.5 t-56.5 43.5t-79 23.5t-106.5 8.5h-299v-1760zM314 968v668h167q64 0 93.5 -22t42 -84t12.5 -195v-13q0 -98 -4.5 -159t-14 -102t-29.5 -60t-44.5 -26t-66.5 -7h-156z" horiz-adv-x="899"/>
<glyph glyph-name="S" unicode="S" d="M411 -20q78 0 134.5 22.5t90.5 60t54 97.5t27 124.5t7 151.5q0 166 -53.5 285.5t-159.5 224.5l-97 96l-20 20q-83 81 -108 120q-46 73 -46 189q0 117 17.5 179.5t51 85t95.5 22.5t95 -34.5t48 -120.5t15 -250v-110h133v99q0 82 -1 127t-6.5 111.5t-16.5 103t-32.5 80.5 t-52 66t-77 37.5t-107.5 15.5q-78 0 -134.5 -22t-90 -58t-53.5 -94.5t-26.5 -119t-6.5 -143.5q0 -58 15 -113t35.5 -95t54 -82.5t58.5 -67.5t61 -58l104 -96q86 -79 119.5 -163t33.5 -219q0 -72 -1 -113t-6 -87t-14.5 -69t-26.5 -44.5t-42.5 -29t-61.5 -7.5q-101 0 -135 94 t-34 330v179h-146v-182q0 -72 2 -125t9.5 -113t20.5 -102t36 -83t55 -65.5t78 -39.5t105 -15z" horiz-adv-x="794"/>
<glyph glyph-name="T" unicode="T" d="M207 0h148v1644h165v116h-497v-116h184v-1644z" horiz-adv-x="542"/>
<glyph glyph-name="U" unicode="U" d="M459 -20q93 0 153 27.5t94.5 89.5t47.5 145.5t13 209.5v1308h-149v-1304q0 -87 -1 -127t-9 -94.5t-24 -76.5t-46.5 -39t-77.5 -17q-33 0 -58.5 8.5t-42.5 21t-29 38.5t-18.5 50t-9.5 67t-4 77.5t-1 92.5v1303h-149v-1308q0 -126 13.5 -210t48.5 -145t95.5 -89t153.5 -28z " horiz-adv-x="915"/>
<glyph glyph-name="V" unicode="V" d="M360 0h155l284 1760h-143l-107 -698l-112 -744h-1l-126 744l-120 698h-143z" horiz-adv-x="846"/>
<glyph glyph-name="W" unicode="W" d="M306 0h137l234 1448l218 -1448h147l213 1760h-141l-148 -1438l-235 1438h-124l-220 -1438l-184 1438h-146z" horiz-adv-x="1312"/>
<glyph glyph-name="X" unicode="X" d="M52 0h124l171 680l176 -680h133l-219 853l222 907h-124l-162 -659l-169 659h-137l218 -841z" horiz-adv-x="710"/>
<glyph glyph-name="Y" unicode="Y" d="M334 0h149v773l287 987h-154l-206 -778h-3l-241 778h-150l318 -988v-772z" horiz-adv-x="786"/>
<glyph glyph-name="Z" unicode="Z" d="M85 0h485v118h-335l341 1540v102h-482v-116h330l-339 -1519v-125z" horiz-adv-x="638"/>
<glyph glyph-name="bracketleft" unicode="[" d="M166 -80h363v115h-214v1611h214v114h-363v-1840z" horiz-adv-x="589"/>
<glyph glyph-name="backslash" unicode="\" d="M505 0h127l-410 1760h-128z" horiz-adv-x="726"/>
<glyph glyph-name="bracketright" unicode="]" d="M60 -80h363v1840h-363v-114h214v-1611h-214v-115z" horiz-adv-x="589"/>
<glyph glyph-name="asciicircum" unicode="^" d="M142 837h151l194 811l194 -811h149l-241 923h-206z" horiz-adv-x="972"/>
<glyph glyph-name="underscore" unicode="_" d="M48 -185h651v121h-651v-121z" horiz-adv-x="748"/>
<glyph glyph-name="grave" unicode="`" d="M360 -119h69l-94 332h-160z" horiz-adv-x="650"/>
<glyph glyph-name="a" unicode="a" d="M366 -11q81 0 132.5 41.5t64.5 81.5v-112h149v976v14q0 74 -0.5 109.5t-2.5 94.5t-7 86.5t-14.5 70t-23.5 61.5t-34.5 44.5t-48.5 35.5t-65 18t-83 8t-83.5 -8.5t-65.5 -22t-49.5 -37.5t-36 -47t-25 -58.5t-16 -64.5t-8.5 -73t-3.5 -76t-0.5 -80v-40h150v37 q0 198 24.5 268.5t113.5 70.5q19 0 34.5 -2.5t28 -10t22 -14.5t16.5 -23t12 -28t8 -36.5t5 -42t3 -50.5t1 -56.5v-65.5v-102l-42 -18q-49 -21 -73 -31.5t-66 -30t-63 -32t-53.5 -33t-48.5 -37.5t-36.5 -41t-30 -48t-16.5 -53.5t-7 -62.5v-192q0 -189 60.5 -288.5 t178.5 -99.5zM393 113q-70 0 -94 61t-24 216v119q0 38 1.5 65t9 52.5t14.5 41.5t26.5 35.5t35.5 31.5t51.5 31t65 32.5t84.5 38.5v-626q-20 -36 -68 -67t-102 -31z" horiz-adv-x="844"/>
<glyph glyph-name="b" unicode="b" d="M510 -11q51 0 89.5 16.5t64 50.5t42 75.5t25.5 102t12 119.5t3 137v522q0 94 -5.5 164t-22.5 139t-45.5 112t-77.5 68.5t-115 22.5q-57 -2 -108.5 -44t-62.5 -102v411h-149v-1783h149v114q54 -125 201 -125zM460 115q-90 0 -120.5 78t-30.5 267v599q0 86 7.5 146.5 t20 95.5t34 54t43 25t53.5 6q29 0 50.5 -10t35.5 -31t23 -47t13.5 -66t6 -78t1.5 -93v-595q0 -194 -28.5 -272t-108.5 -79z" horiz-adv-x="874"/>
<glyph glyph-name="c" unicode="c" d="M418 -18q59 0 104 15t75 34.5t50 63t30.5 76.5t15.5 101.5t6 110t1 127.5v7v45h-151v-113q0 -53 -0.5 -85t-3.5 -71.5t-8 -62t-14.5 -47t-23 -36.5t-34 -20t-46.5 -8q-33 0 -56.5 8t-39 28t-25 43.5t-14 66.5t-6 83.5t-1.5 106.5v602q0 66 2.5 110t11.5 88t25 69.5 t43.5 41t66.5 15.5q30 0 51.5 -7.5t35 -29t21 -40.5t11 -63.5t4 -74.5t0.5 -96v-5v-92h151v47q0 80 -1 121.5t-6 104.5t-15.5 95t-30 72t-48.5 59t-72.5 32.5t-101.5 13.5q-64 0 -113 -16.5t-81 -50.5t-53 -75t-31.5 -100.5t-14.5 -116t-4 -131.5v-517q0 -76 1.5 -127 t8 -112t18.5 -100t33.5 -78.5t52 -61.5t74.5 -36t102 -14z" horiz-adv-x="803"/>
<glyph glyph-name="d" unicode="d" d="M365 -11q40 0 75.5 10.5t70 39.5t53.5 75v-114h150v1783h-150v-390q-21 52 -64.5 88.5t-94.5 36.5q-68 0 -118 -26t-80 -69t-48 -111t-24.5 -139t-6.5 -165v-527q0 -92 5 -160t20 -133.5t41 -107t69 -66.5t102 -25zM409 114q-35 0 -59.5 16t-38.5 41t-21.5 69t-9.5 87.5 t-2 108.5v594q0 196 29 275t109 80q90 0 119.5 -77.5t29.5 -270.5v-603q0 -86 -7.5 -145.5t-19.5 -93.5t-33.5 -52.5t-42.5 -23.5t-53 -5z" horiz-adv-x="855"/>
<glyph glyph-name="e" unicode="e" d="M421 -18q50 0 90 8.5t68 31.5t48.5 44t32.5 64t19.5 73.5t10.5 91t3.5 96.5t0.5 109v7v49h-145v-112q0 -60 -1 -97.5t-5 -80t-12.5 -67t-23 -46.5t-36.5 -31t-52 -9q-39 0 -65 14t-41.5 37.5t-23 69t-10 92.5t-2.5 124v302h421v250q0 92 -1.5 141t-9 120t-25 108 t-46.5 76t-77 55t-114 16t-115.5 -17t-81.5 -52t-52.5 -76.5t-30.5 -103.5t-13.5 -119t-3.5 -136v-503q0 -76 1.5 -127.5t8.5 -112t19 -99.5t33.5 -78.5t52 -61.5t75.5 -36t103 -14zM277 877v183q0 54 2 93t7.5 78.5t16 66t26.5 48t40.5 31.5t56.5 10q30 0 51.5 -7.5 t35 -29.5t21 -41.5t11 -64t4 -74t0.5 -92.5v-10v-191h-272z" horiz-adv-x="802"/>
<glyph glyph-name="f" unicode="f" d="M219 0h150v1329h199v113h-199v92q0 64 21 93.5t97 29.5q36 0 81 -7v121q-54 18 -135 18q-116 0 -165 -69.5t-49 -207.5v-70h-140v-113h140v-1329z" horiz-adv-x="608"/>
<glyph glyph-name="g" unicode="g" d="M423 -232q71 3 125.5 28.5t85 60.5t49.5 81.5t25 83.5t6 75v1403h-149v-88q-39 104 -159 106q-74 1 -128.5 -36.5t-86.5 -108t-47.5 -160t-15.5 -200.5v-381q0 -92 6 -163.5t23 -137.5t44.5 -109.5t73 -69t106.5 -25.5q63 0 108.5 25.5t75.5 92.5v-165q0 -84 -37 -133 t-101 -52q-132 -5 -236 73l-57 -115q52 -40 131 -64.5t158 -20.5zM436 255q-92 0 -125.5 81.5t-33.5 274.5v441q0 67 2.5 112t11 91t24 72.5t43 43t66.5 16.5q36 0 61.5 -13.5t41 -38t24 -68t11.5 -93.5t3 -124v-436q0 -148 -14.5 -227t-40.5 -105.5t-74 -26.5z" horiz-adv-x="858"/>
<glyph glyph-name="h" unicode="h" d="M160 0h149v1191q0 53 15.5 92t42 59.5t55.5 29.5t63 9q67 0 102.5 -39t35.5 -141v-1201h150v1211q0 154 -59.5 231t-160.5 77q-85 0 -154.5 -49.5t-89.5 -116.5v430h-149v-1783z" horiz-adv-x="921"/>
<glyph glyph-name="i" unicode="i" d="M159 0h150v1500h-150v-1500zM159 1638h149v145h-149v-145z" horiz-adv-x="460"/>
<glyph glyph-name="j" unicode="j" d="M202 -221q17 3 33.5 10.5t39 25.5t36.5 57.5t14 93.5v1534h-149v-1544q0 -61 -37 -67q-16 -2 -32 -1.5t-27 1.5l-12 1v-108h4q5 -1 11.5 -2t16 -2t21.5 -1.5t24.5 -0.5t27.5 0.5t29 2.5zM177 1638h149v145h-149v-145z" horiz-adv-x="479"/>
<glyph glyph-name="k" unicode="k" d="M160 0h149v742l342 -742h156l-359 756l341 744h-149l-331 -740v1023h-149v-1783z" horiz-adv-x="835"/>
<glyph glyph-name="l" unicode="l" d="M162 0h150v1783h-150v-1783z" horiz-adv-x="465"/>
<glyph glyph-name="m" unicode="m" d="M160 0h149v1209q0 85 43 128.5t123 43.5q65 0 100.5 -34.5t35.5 -120.5v-1226h149v1217v22q3 45 17.5 75t39.5 43.5t49.5 18.5t58.5 5q66 0 101.5 -35.5t35.5 -119.5v-1226h150v1217q0 152 -60 227t-159 75q-81 0 -149 -42t-105 -110q-51 152 -201 152q-82 0 -145.5 -50 t-83.5 -118v149h-149v-1500z" horiz-adv-x="1360"/>
<glyph glyph-name="n" unicode="n" d="M160 0h149v1220q0 167 169 167q66 0 105.5 -38.5t39.5 -125.5v-1223h149v1211q0 154 -60 231t-161 77q-85 0 -153.5 -49.5t-88.5 -116.5v147h-149v-1500z" horiz-adv-x="920"/>
<glyph glyph-name="o" unicode="o" d="M426 113q-39 0 -66.5 17t-43.5 44.5t-25 75t-11.5 95.5t-2.5 118v590q0 67 2.5 111.5t11 90.5t24.5 72.5t43.5 43t67.5 16.5q45 0 74.5 -23t43.5 -71.5t19 -102.5t5 -137v-590q0 -87 -5 -144.5t-19.5 -108t-43.5 -74t-74 -23.5zM426 -18q41 0 75.5 6t61.5 20t48.5 30.5 t37.5 43.5t27.5 51.5t18.5 62t11.5 69t7 78t3 83t0.5 89.5v503q0 69 -2 117.5t-8.5 104.5t-19 94t-34 75.5t-52 59.5t-74.5 35.5t-101 13.5q-66 0 -115.5 -16.5t-81.5 -51t-52.5 -75.5t-31 -102.5t-14 -118.5t-3.5 -136v-503q0 -66 1.5 -113t6 -101t13.5 -91.5t24 -77 t37 -64.5t52.5 -46t71.5 -30.5t92 -9.5z" horiz-adv-x="845"/>
<glyph glyph-name="p" unicode="p" d="M163 -265h149v373q20 -53 64.5 -89.5t95.5 -36.5q66 0 115 25t79.5 67t49 106.5t25.5 134.5t7 160v538q0 77 -3.5 136.5t-12.5 119t-26 101t-42.5 75t-64 50t-88.5 16.5q-146 0 -199 -126v115h-149v-1765zM464 115q-91 0 -121.5 78.5t-30.5 269.5v596q0 86 7.5 146 t20 95.5t33.5 54.5t43 25t54 6q29 0 50.5 -9.5t35.5 -31t22.5 -47t13 -66t6 -78t1.5 -93.5v-593q0 -197 -28 -274.5t-107 -78.5z" horiz-adv-x="876"/>
<glyph glyph-name="q" unicode="q" d="M565 -265h150v1765h-150v-119q-54 130 -201 130q-51 0 -89.5 -16.5t-64 -50t-42 -75t-25.5 -101.5t-12 -118.5t-3 -136.5v-534q0 -114 12 -197.5t41 -154.5t85 -108t138 -37q51 0 95 35.5t66 88.5v-371zM406 114q-35 0 -59 15.5t-38 40.5t-21.5 69.5t-9.5 88t-2 109.5 v594q0 197 28 275t108 79q38 0 65 -14t44 -39t26.5 -69.5t13 -97t3.5 -128.5v-596q0 -86 -7.5 -146.5t-20 -95.5t-34 -54.5t-43 -25t-53.5 -5.5z" horiz-adv-x="853"/>
<glyph glyph-name="r" unicode="r" d="M160 0h149v1246q58 82 118.5 113.5t139.5 31.5q2 127 -3 127q-98 0 -163.5 -48.5t-91.5 -136.5v167h-149v-1500z" horiz-adv-x="605"/>
<glyph glyph-name="s" unicode="s" d="M406 -20q139 0 208 92.5t69 252.5q0 124 -44.5 230t-147.5 206l-105 103q-87 86 -115 147.5t-28 138.5q0 231 135 231q70 0 102.5 -73t32.5 -230v-121h140v94q0 131 -19.5 223t-57 144.5t-86.5 76t-115 23.5q-130 0 -206 -84.5t-76 -247.5q0 -118 42.5 -218t141.5 -193 l111 -105q91 -86 116 -159.5t25 -176.5q0 -122 -31 -170t-105 -48q-142 0 -142 317v103h-149v-129q0 -223 73.5 -325t230.5 -102z" horiz-adv-x="744"/>
<glyph glyph-name="t" unicode="t" d="M423 -9h104v127q-53 0 -82.5 2t-50.5 6.5t-29 16.5t-11 25.5t-3 40.5v1175h177v116h-177v260h-150v-260h-150v-116h150v-1167q0 -68 7.5 -107.5t31.5 -68.5t67 -39.5t116 -10.5z" horiz-adv-x="585"/>
<glyph glyph-name="u" unicode="u" d="M385 -20q83 0 145.5 51t81.5 119v-150h149v1500h-151l2 -1197q0 -85 -45 -134.5t-123 -49.5q-69 0 -108 43.5t-39 129.5v1208h-149v-1215q0 -84 23 -147t60.5 -95.5t76 -47.5t77.5 -15z" horiz-adv-x="914"/>
<glyph glyph-name="v" unicode="v" d="M287 0h149l224 1500h-136l-110 -809l-45 -450h-6l-51 449l-118 810h-136z" horiz-adv-x="718"/>
<glyph glyph-name="w" unicode="w" d="M236 0h142l173 1283l147 -1283h148l174 1500h-132l-75 -852l-20 -346h-10l-40 344l-137 854h-26h-54h-47l-126 -886l-30 -312h-12l-24 311l-90 887h-137z" horiz-adv-x="1080"/>
<glyph glyph-name="x" unicode="x" d="M33 0h132l161 574l171 -574h139l-236 779l232 721h-142l-149 -527l-160 527h-130l219 -738z" horiz-adv-x="668"/>
<glyph glyph-name="y" unicode="y" d="M133 -238h124q39 0 66 4.5t47.5 18.5t32.5 29t22 47t15.5 60.5t13.5 81.5l239 1497h-149l-107 -793l-43 -408h-13l-48 408l-119 793h-150l250 -1462q5 -35 7 -47t3.5 -35t-2 -35t-11.5 -20q-17 -11 -123 -11h-55v-128z" horiz-adv-x="745"/>
<glyph glyph-name="z" unicode="z" d="M80 0h468v130h-314l334 1277v93h-463v-129h304l-329 -1263v-108z" horiz-adv-x="621"/>
<glyph glyph-name="braceleft" unicode="{" d="M450 -81h60v124q-92 0 -116 41t-24 187v266q0 147 -23.5 213t-95.5 100q72 35 95.5 101t23.5 213v266q0 146 24 187t116 41v125h-60q-133 0 -180.5 -71.5t-47.5 -268.5v-295q0 -86 -4 -131.5t-19.5 -76.5t-41 -40t-73.5 -9v-81q48 0 73.5 -9t41 -40t19.5 -76.5t4 -131.5 v-295q0 -197 47 -268t181 -71z" horiz-adv-x="628"/>
<glyph glyph-name="bar" unicode="|" d="M166 -134h149v1917h-149v-1917z" horiz-adv-x="481"/>
<glyph glyph-name="braceright" unicode="}" d="M118 -81h60q134 0 181 71t47 268v295q0 86 4 131.5t19.5 76.5t41 40t73.5 9v81q-48 0 -73.5 9t-41 40t-19.5 76.5t-4 131.5v295q0 197 -47.5 268.5t-180.5 71.5h-60v-125q92 0 116 -41t24 -187v-266q0 -147 23.5 -213t95.5 -101q-72 -34 -95.5 -100t-23.5 -213v-266 q0 -146 -24 -187t-116 -41v-124z" horiz-adv-x="628"/>
<glyph glyph-name="asciitilde" unicode="~" d="M229 840q14 68 32.5 100.5t55.5 29.5q23 -2 201.5 -59.5t243.5 -57.5q76 0 120 63.5t56 206.5l-123 17q-8 -90 -24 -122t-51 -32q-27 0 -207.5 57.5t-237.5 57.5q-69 0 -115.5 -53t-68.5 -173z" horiz-adv-x="1049"/>
<glyph glyph-name="uni00A0" unicode=" " horiz-adv-x="460"/>
<glyph glyph-name="exclamdown" unicode="¡" d="M345 1500h-186v-202h186v202zM281 1132h-60l-65 -1392h188z" horiz-adv-x="501"/>
<glyph glyph-name="cent" unicode="¢" d="M380 -249h93v255h-93v-255zM380 1503h93v257h-93v-257zM418 -18q59 0 104 15t75 34.5t50 63t30.5 76.5t15.5 101.5t6 110t1 127.5v7v45h-151v-113q0 -53 -0.5 -85t-3.5 -71.5t-8 -62t-14.5 -47t-23 -36.5t-34 -20t-46.5 -8q-33 0 -56.5 8t-39 28t-25 43.5t-14 66.5 t-6 83.5t-1.5 106.5v602q0 66 2.5 110t11.5 88t25 69.5t43.5 41t66.5 15.5q30 0 51.5 -7.5t35 -29t21 -40.5t11 -63.5t4 -74.5t0.5 -96v-5v-92h151v47q0 80 -1 121.5t-6 104.5t-15.5 95t-30 72t-48.5 59t-72.5 32.5t-101.5 13.5q-64 0 -113 -16.5t-81 -50.5t-53 -75 t-31.5 -100.5t-14.5 -116t-4 -131.5v-517q0 -76 1.5 -127t8 -112t18.5 -100t33.5 -78.5t52 -61.5t74.5 -36t102 -14z" horiz-adv-x="803"/>
<glyph glyph-name="sterling" unicode="£" d="M118 0h660v110h-449q108 59 134 171t-15 362l-30 174h282v103h-302l-37 200q-35 195 -35 289q0 145 39 197t118 52q38 0 62 -9t44 -35t29 -77.5t9 -132.5v-158h129v146q0 119 -21.5 199t-62.5 120.5t-87.5 56t-109.5 15.5q-153 0 -223 -99.5t-70 -297.5q0 -101 38 -289 l36 -177h-168v-103h187l30 -170q15 -85 21.5 -144.5t4 -114t-15 -92.5t-39 -75.5t-64.5 -68.5t-94 -66v-86z"/>
<glyph glyph-name="currency" unicode="¤" d="M274 812l89 89q92 -53 216 -53t216 52l89 -88l150 149l-90 90q54 97 54 216q0 117 -54 215l90 90l-150 149l-87 -87q-98 54 -218 54q-121 0 -218 -55l-87 88l-149 -150l90 -90q-52 -97 -52 -214q0 -116 53 -214l-91 -91zM579 951q-133 0 -214.5 90.5t-81.5 225.5 q0 134 82 224.5t214 90.5q135 0 216 -88t81 -225q0 -135 -82 -226.5t-215 -91.5z" horiz-adv-x="1159"/>
<glyph glyph-name="yen" unicode="¥" d="M77 462h676v82h-288v197h288v83h-676v-83h335v-197h-335v-82zM334 0h149v773l287 987h-154l-206 -778h-3l-241 778h-150l318 -988v-772z" horiz-adv-x="786"/>
<glyph glyph-name="brokenbar" unicode="¦" d="M166 -84h148v808h-148v-808zM166 931h148v829h-148v-829z" horiz-adv-x="480"/>
<glyph glyph-name="section" unicode="§" d="M419 -20q148 -1 220 93.5t57 251.5q-7 69 -34 143.5t-71 131.5q46 107 46 166q0 85 -31.5 153t-89.5 141q-15 18 -43 51.5t-40 48.5q-10 12 -36 43.5t-32 39.5t-25.5 32.5t-23.5 32t-16.5 27.5t-15 30t-9.5 28t-8 32.5t-2.5 33.5t-1.5 41q1 50 14 83t36.5 48.5t47 21 t54.5 5.5q78 0 105 -80t27 -251v-107h133v140q0 226 -61 324.5t-212 98.5q-137 0 -211.5 -74.5t-68.5 -233.5q4 -113 81 -239q-36 -34 -55 -77.5t-23 -73.5t-4 -70q0 -27 6.5 -53.5t17.5 -50t28 -49t35 -47t41 -46.5q5 -6 11 -12l12.5 -12.5l12 -12l13 -13l12 -12l13 -13 l12.5 -12.5q41 -40 65.5 -66t57.5 -66.5t51.5 -74.5t33 -77.5t16.5 -87.5q5 -120 -40.5 -167t-126.5 -39q-71 7 -101 79t-30 226v117h-137v-129q0 -224 66.5 -319.5t223.5 -97.5zM512 681q-28 31 -89 91.5t-92 93.5t-59.5 82t-30.5 92q-3 66 29 112q41 -51 94.5 -113.5 t74 -87.5t44 -61t30 -64.5t6.5 -66.5q0 -1 -1 -17t-2.5 -35t-3.5 -26z" horiz-adv-x="764"/>
<glyph glyph-name="dieresis" unicode="¨" d="M155 1367h182v133h-182v-133zM585 1367h182v133h-182v-133z" horiz-adv-x="976"/>
<glyph glyph-name="copyright" unicode="©" d="M736 393q117 0 166 58t49 176v114h-101v-112q0 -82 -24.5 -115.5t-91.5 -33.5q-63 0 -90.5 38t-27.5 111v428q0 75 25 111.5t93 36.5q67 0 91.5 -36.5t24.5 -124.5v-83h97v136q0 97 -53.5 149.5t-153.5 52.5q-121 0 -176 -65t-55 -198v-412q0 -117 59.5 -174t167.5 -57z M733 236q-160 0 -287.5 81t-198 220t-70.5 307q0 125 41.5 237t114 193.5t176.5 129t224 47.5t224 -47.5t176.5 -129t114 -193.5t41.5 -237q0 -168 -70.5 -307t-198 -220t-287.5 -81zM733 168q137 0 255 52t200 142t128 214.5t46 267.5q0 142 -46 266.5t-128 214.5t-200 142 t-255 52t-255 -52t-200 -142t-128 -214.5t-46 -266.5q0 -143 46 -267.5t128 -214.5t200 -142t255 -52z" horiz-adv-x="1466"/>
<glyph glyph-name="ordfeminine" unicode="ª" d="M362 553q66 0 106.5 33.5t52.5 68.5v-92h120v784v7q0 89 -1 130t-7 102t-20 88t-38.5 57.5t-63.5 41t-95 10.5q-41 0 -74 -7.5t-56.5 -24.5t-40.5 -35.5t-28 -48.5t-17.5 -55.5t-9.5 -64.5t-4 -67.5t-1 -72.5q-1 -32 -1 -33h121v30q0 159 20 216t92 57q25 0 42 -5t29 -20 t18.5 -31.5t9.5 -50t4 -64t1 -83.5v-92q-161 -71 -204 -96q-112 -64 -137 -150q-9 -31 -9 -66v-153q0 -313 191 -313zM384 653q-56 0 -75.5 49t-19.5 174v97q0 41 2.5 67t14 50.5t24 39t44 34t60.5 33.5t87 40v-505q-17 -28 -55.5 -53.5t-81.5 -25.5z" horiz-adv-x="765"/>
<glyph glyph-name="guillemotleft" unicode="«" d="M542 414v160l-312 175l312 166v150l-466 -271v-95zM1065 414v160l-312 175l312 166v150l-466 -271v-95z" horiz-adv-x="1304"/>
<glyph glyph-name="logicalnot" unicode="¬" d="M701 439h125v419h-729v-115h604v-304z" horiz-adv-x="947"/>
<glyph glyph-name="uni00AD" unicode="­" d="M90 626h516v115h-516v-115z" horiz-adv-x="696"/>
<glyph glyph-name="registered" unicode="®" d="M527 446h120v418q16 0 42.5 0.5t40 1t33.5 -1t30.5 -6t23 -12.5t18.5 -21t10 -32t4 -45v-302h118v341q0 50 -32.5 82.5t-76.5 40.5q123 39 123 165v17q-5 110 -67 158t-174 48h-213v-852zM733 271q-160 0 -292.5 78.5t-208 214.5t-75.5 298t75.5 298t208 214.5 t292.5 78.5t292.5 -78.5t208 -214.5t75.5 -298t-75.5 -298t-208 -214.5t-292.5 -78.5zM733 205q184 0 334.5 86t236.5 236.5t86 334.5t-86 334.5t-236.5 236.5t-334.5 86t-334.5 -86t-236.5 -236.5t-86 -334.5t86 -334.5t236.5 -236.5t334.5 -86zM648 951v259q129 0 172 -26 t43 -108q0 -61 -36 -93t-101 -32h-78z" horiz-adv-x="1502"/>
<glyph glyph-name="macron" unicode="¯" d="M90 -70h495v113h-495v-113z" horiz-adv-x="696"/>
<glyph glyph-name="degree" unicode="°" d="M432 1201q-94 0 -162.5 64.5t-68.5 182.5t68 182.5t163 64.5q94 0 162.5 -64.5t68.5 -182.5t-68 -182.5t-163 -64.5zM431 1114q89 0 165.5 36t127.5 114t51 184q0 107 -51 185t-127.5 114t-165.5 36q-65 0 -125.5 -21.5t-109.5 -62t-78.5 -105.5t-29.5 -146 q0 -107 50.5 -184.5t127 -113.5t165.5 -36z" horiz-adv-x="863"/>
<glyph glyph-name="plusminus" unicode="±" d="M368 554h118v266h234v106h-234v259h-118v-259h-230v-106h230v-266zM173 259h516v118h-516v-118z" horiz-adv-x="854"/>
<glyph glyph-name="uni00B2" unicode="²" d="M264 420h387v78h-276q9 97 43 194t75.5 177.5t82 162t67.5 178.5t27 196q0 59 -3 104.5t-14 98.5t-29.5 87.5t-53 58t-82.5 23.5q-33 0 -60.5 -4.5t-48.5 -16.5t-38 -24.5t-29 -35t-21 -42.5t-14.5 -53.5t-9 -59.5t-5 -69t-2 -75t-0.5 -84l-1 -82h116v178q0 85 7.5 141.5 t22 83.5t30 36.5t36.5 9.5q28 0 45.5 -17t30.5 -76.5t13 -165.5q0 -70 -15.5 -154.5t-37.5 -132.5l-13 -36l-40 -96q-190 -456 -190 -511v-72z" horiz-adv-x="861"/>
<glyph glyph-name="uni00B3" unicode="³" d="M438 542q110 0 161.5 81.5t51.5 252.5q0 107 -30.5 192.5t-90.5 112.5q119 46 119 279q0 159 -50 237t-161 78q-110 0 -155.5 -77t-45.5 -238v-23h100v22q0 92 13 144t33.5 69t52.5 17q26 0 44.5 -8t35.5 -31t25.5 -70t8.5 -118q0 -78 -7.5 -125.5t-27 -71.5t-43 -31 t-64.5 -7h-29v-87h31q78 0 110.5 -55.5t32.5 -206.5q0 -142 -24.5 -197t-90.5 -55t-85.5 50t-19.5 203v30h-100v-29q0 -175 47 -256.5t158 -81.5z" horiz-adv-x="880"/>
<glyph glyph-name="acute" unicode="´" d="M186 1834h68l158 398h-144z" horiz-adv-x="650"/>
<glyph glyph-name="paragraph" unicode="¶" d="M430 0h120v1620h153v-1620h120v1760h-243q-117 0 -202 -17.5t-133.5 -44t-76.5 -69t-36.5 -82.5t-8.5 -93q0 -101 80 -179.5t227 -94.5v-1180z" horiz-adv-x="989"/>
<glyph glyph-name="periodcentered" unicode="·" d="M163 786h170v175h-170v-175z" horiz-adv-x="480"/>
<glyph glyph-name="cedilla" unicode="¸" d="M470 -596q115 0 192 65.5t77 154.5q0 63 -44 123t-135 106l-9 147h-57l-40 -196q67 -15 113.5 -57.5t46.5 -105.5q0 -65 -50.5 -103.5t-180.5 -38.5v-86q47 -9 87 -9z" horiz-adv-x="1015"/>
<glyph glyph-name="uni00B9" unicode="¹" d="M266 414h111v1346h-68q-33 -73 -88 -116.5t-118 -52.5v-74q45 0 92 18t71 50v-1171z" horiz-adv-x="626"/>
<glyph glyph-name="ordmasculine" unicode="º" d="M477 478q-27 0 -46.5 8.5t-32.5 27.5t-21 41t-12 57t-5.5 67.5t-1.5 80.5v474q0 54 2 89.5t9 72t19.5 57.5t34.5 34t54 13q36 0 59.5 -18t34.5 -57t15 -82t4 -109v-474q0 -71 -3.5 -116t-15 -86.5t-34.5 -60.5t-60 -19zM477 374q37 0 67 7t52.5 18t40 31.5t29.5 40.5 t20.5 51.5t13 58.5t7 68t3 72.5t0.5 79.5v404q0 79 -3.5 131t-17 108t-38 88.5t-68.5 53.5t-106 21q-53 0 -92.5 -13.5t-65 -41t-42 -60.5t-24.5 -82.5t-11 -95t-3 -109.5v-404q0 -53 1 -90t4.5 -81t11 -74t19 -61.5t29.5 -51.5t42 -37t57 -24.5t74 -7.5z" horiz-adv-x="908"/>
<glyph glyph-name="guillemotright" unicode="»" d="M193 414l466 285v95l-466 271v-150l312 -166l-312 -175v-160zM716 414l466 285v95l-466 271v-150l312 -166l-312 -175v-160z" horiz-adv-x="1304"/>
<glyph glyph-name="onequarter" unicode="¼" d="M1190 0h94v244h109v82h-109v898h-95l-278 -910l5 -70h274v-244zM267 424h116v1359h-71q-33 -74 -90 -117.5t-122 -53.5v-75q46 0 94 18t73 50v-1181zM489 0h118l461 1783h-120zM1007 326l183 663v-663h-183z" horiz-adv-x="1535"/>
<glyph glyph-name="onehalf" unicode="½" d="M1131 0h392v98h-280q6 100 62 217l165 354q73 153 73 328q0 56 -2 97.5t-8.5 87.5t-19.5 77.5t-32.5 58.5t-50.5 40.5t-72 13.5q-37 0 -67 -7t-52.5 -18t-40 -32t-29 -41.5t-19.5 -55t-12.5 -63t-7 -75.5t-3 -82.5t-0.5 -93.5v-83h117v180q0 85 7.5 141.5t22 83.5t30 37 t37.5 10q28 0 46 -17t31 -77t13 -166q0 -173 -54 -289l-167 -359q-79 -170 -79 -291v-74zM267 424h116v1359h-71q-33 -74 -90 -117.5t-122 -53.5v-75q46 0 94 18t73 50v-1181zM489 0h118l461 1783h-120z" horiz-adv-x="1620"/>
<glyph glyph-name="threequarters" unicode="¾" d="M358 551q115 0 168.5 82.5t53.5 256.5q0 109 -31.5 195t-92.5 114q122 46 122 282q0 161 -52 240t-167 79q-113 0 -160.5 -78t-47.5 -241v-24h105v23q0 134 25 182.5t76 48.5q27 0 45.5 -8.5t36 -31.5t26 -70t8.5 -119q0 -104 -16 -156t-44.5 -67t-83.5 -15h-31v-87h31 q80 0 113 -56.5t33 -208.5q0 -143 -24.5 -198.5t-91.5 -55.5t-87 50.5t-20 204.5v31h-105v-31q0 -178 48.5 -260t162.5 -82zM1269 0h94v244h109v82h-109v898h-95l-278 -910l5 -70h274v-244zM568 0h118l461 1783h-120zM1086 326l183 663v-663h-183z" horiz-adv-x="1555"/>
<glyph glyph-name="questiondown" unicode="¿" d="M521 1008h-125v-256q-153 -43 -211.5 -170.5t-58.5 -393.5q0 -204 10 -271q21 -134 104 -175q46 -23 117 -23q44 0 79.5 9t59.5 27.5t42 39t28 52t16.5 56t8 62.5t2 60.5t-0.5 60t-1 51.5v205h-132v-215q0 -169 -21 -227.5t-85 -58.5q-58 0 -76.5 63.5t-18.5 228.5 q0 73 1 119.5t5 99.5t11.5 85.5t21 69t32.5 60t46.5 47.5t63 42.5t82.5 35.5v316zM522 1502h-126v-299h126v299z" horiz-adv-x="708"/>
<glyph glyph-name="Agrave" unicode="À" d="M374 1904h69l-94 332h-160zM35 0h141l53 362h352l58 -362h144l-313 1760h-152zM248 473l149 1003h2l162 -1003h-313z" horiz-adv-x="817"/>
<glyph glyph-name="Aacute" unicode="Á" d="M375 1904h68l158 398h-144zM35 0h141l53 362h352l58 -362h144l-313 1760h-152zM248 473l149 1003h2l162 -1003h-313z" horiz-adv-x="817"/>
<glyph glyph-name="Acircumflex" unicode="Â" d="M205 1904h118l86 175l86 -175h117l-120 254h-166zM35 0h141l53 362h352l58 -362h144l-313 1760h-152zM248 473l149 1003h2l162 -1003h-313z" horiz-adv-x="817"/>
<glyph glyph-name="Atilde" unicode="Ã" d="M550 1904q53 0 82.5 27t58.5 118l9 26l-105 29q-14 -41 -26.5 -55t-29.5 -17h-4q-21 0 -113.5 36t-136.5 36q-27 0 -39.5 -0.5t-35.5 -7.5t-36.5 -20t-29.5 -39.5t-27 -65.5l93 -46q15 30 25.5 43t25.5 16q7 2 23 2q41 0 131 -41t135 -41zM35 0h141l53 362h352l58 -362 h144l-313 1760h-152zM248 473l149 1003h2l162 -1003h-313z" horiz-adv-x="817"/>
<glyph glyph-name="Adieresis" unicode="Ä" d="M103 1904h182v133h-182v-133zM533 1904h182v133h-182v-133zM35 0h141l53 362h352l58 -362h144l-313 1760h-152zM248 473l149 1003h2l162 -1003h-313z" horiz-adv-x="817"/>
<glyph glyph-name="Aring" unicode="Å" d="M409 1823q-45 0 -71 30.5t-26 71.5t26 71.5t71 30.5q47 0 73.5 -30t26.5 -72t-26.5 -72t-73.5 -30zM409 1772q81 0 125 45.5t44 106.5t-44 107.5t-125 46.5q-80 0 -124.5 -46.5t-44.5 -107.5q0 -60 44.5 -106t124.5 -46zM35 0h141l53 362h352l58 -362h144l-313 1760h-152 zM248 473l149 1003h2l162 -1003h-313z" horiz-adv-x="817"/>
<glyph glyph-name="AE" unicode="Æ" d="M43 0h140l76 370h292v-370h435v118h-302v718h286v120h-286v688h305v116h-556zM288 483l245 1162l18 1v-1163h-263z" horiz-adv-x="1074"/>
<glyph glyph-name="Ccedilla" unicode="Ç" d="M372 -596q115 0 192 65.5t77 154.5q0 63 -44 123t-135 106l-9 147h-57l-40 -196q67 -15 113.5 -57.5t46.5 -105.5q0 -65 -50.5 -103.5t-180.5 -38.5v-86q47 -9 87 -9zM448 -20q76 0 130 25t87 69t52 118t26 157.5t7 202.5v140h-150v-141q0 -255 -29.5 -352t-123.5 -97 q-98 0 -130 97.5t-32 352.5v706q0 208 36.5 304t131.5 96q47 0 77 -24.5t45 -80t20 -122t5 -174.5v-170h151v152q0 68 -1 112t-5 101.5t-13 94t-23 78.5t-36 67.5t-52 48t-72 32.5t-95 10q-59 0 -106 -14t-80 -38.5t-57 -63t-38 -81t-22.5 -100t-11.5 -111.5t-3 -124v-701 q0 -118 7.5 -202.5t28 -157.5t55.5 -117t89.5 -68.5t131.5 -24.5z" horiz-adv-x="868"/>
<glyph glyph-name="Egrave" unicode="È" d="M364 1904h69l-94 332h-160zM166 0h462v118h-313v717h297v121h-297v688h316v116h-465v-1760z" horiz-adv-x="716"/>
<glyph glyph-name="Eacute" unicode="É" d="M364 1904h68l158 398h-144zM166 0h462v118h-313v717h297v121h-297v688h316v116h-465v-1760z" horiz-adv-x="716"/>
<glyph glyph-name="Ecircumflex" unicode="Ê" d="M195 1904h118l86 175l86 -175h117l-120 254h-166zM166 0h462v118h-313v717h297v121h-297v688h316v116h-465v-1760z" horiz-adv-x="716"/>
<glyph glyph-name="Edieresis" unicode="Ë" d="M93 1904h182v133h-182v-133zM523 1904h182v133h-182v-133zM166 0h462v118h-313v717h297v121h-297v688h316v116h-465v-1760z" horiz-adv-x="716"/>
<glyph glyph-name="Igrave" unicode="Ì" d="M208 1904h69l-94 332h-160zM168 0h149v1760h-149v-1760z" horiz-adv-x="485"/>
<glyph glyph-name="Iacute" unicode="Í" d="M208 1904h68l158 398h-144zM168 0h149v1760h-149v-1760z" horiz-adv-x="485"/>
<glyph glyph-name="Icircumflex" unicode="Î" d="M39 1904h118l86 175l86 -175h117l-120 254h-166zM168 0h149v1760h-149v-1760z" horiz-adv-x="485"/>
<glyph glyph-name="Idieresis" unicode="Ï" d="M-63 1904h182v133h-182v-133zM367 1904h182v133h-182v-133zM168 0h149v1760h-149v-1760z" horiz-adv-x="485"/>
<glyph glyph-name="Eth" unicode="Ð" d="M37 821h478v116h-478v-116zM341 128v1508h132q94 0 138.5 -85t44.5 -277v-755q0 -97 -8 -165.5t-22.5 -112.5t-38.5 -69t-53 -34.5t-70 -9.5h-123zM193 0h265q191 0 269 114.5t78 389.5v754q0 98 -8 170.5t-30 138t-59.5 106t-98.5 64t-145 23.5h-271v-1760z" horiz-adv-x="941"/>
<glyph glyph-name="Ntilde" unicode="Ñ" d="M633 1904q53 0 82.5 27t58.5 118l9 26l-105 29q-14 -41 -26.5 -55t-29.5 -17h-4q-21 0 -113.5 36t-136.5 36q-27 0 -39.5 -0.5t-35.5 -7.5t-36.5 -20t-29.5 -39.5t-27 -65.5l93 -46q15 30 25.5 43t25.5 16q7 2 23 2q41 0 131 -41t135 -41zM166 0h140v850l-10 476 l405 -1326h116v1760h-130v-755l15 -606l-432 1361h-104v-1760z" horiz-adv-x="983"/>
<glyph glyph-name="Ograve" unicode="Ò" d="M411 1904h69l-94 332h-160zM447 102q-51 0 -81.5 19t-49 69.5t-25 126t-6.5 202.5v762q0 204 36 290.5t133 86.5q91 0 121.5 -84t30.5 -294v-761q0 -126 -6.5 -202.5t-25 -126.5t-48.5 -69t-79 -19zM447 -20q76 0 130 21.5t88.5 61.5t54.5 108t27.5 149.5t7.5 198.5v749 q0 74 -2 124.5t-8.5 109.5t-19 97t-34.5 76t-54 59.5t-78 35t-105 13.5t-106 -13t-80.5 -35.5t-57 -59.5t-38 -77t-22.5 -96t-11 -109.5t-3 -124.5v-749q0 -116 8 -198t28 -150t55.5 -108t89.5 -61.5t130 -21.5z" horiz-adv-x="891"/>
<glyph glyph-name="Oacute" unicode="Ó" d="M412 1904h68l158 398h-144zM447 102q-51 0 -81.5 19t-49 69.5t-25 126t-6.5 202.5v762q0 204 36 290.5t133 86.5q91 0 121.5 -84t30.5 -294v-761q0 -126 -6.5 -202.5t-25 -126.5t-48.5 -69t-79 -19zM447 -20q76 0 130 21.5t88.5 61.5t54.5 108t27.5 149.5t7.5 198.5v749 q0 74 -2 124.5t-8.5 109.5t-19 97t-34.5 76t-54 59.5t-78 35t-105 13.5t-106 -13t-80.5 -35.5t-57 -59.5t-38 -77t-22.5 -96t-11 -109.5t-3 -124.5v-749q0 -116 8 -198t28 -150t55.5 -108t89.5 -61.5t130 -21.5z" horiz-adv-x="891"/>
<glyph glyph-name="Ocircumflex" unicode="Ô" d="M242 1904h118l86 175l86 -175h117l-120 254h-166zM447 102q-51 0 -81.5 19t-49 69.5t-25 126t-6.5 202.5v762q0 204 36 290.5t133 86.5q91 0 121.5 -84t30.5 -294v-761q0 -126 -6.5 -202.5t-25 -126.5t-48.5 -69t-79 -19zM447 -20q76 0 130 21.5t88.5 61.5t54.5 108 t27.5 149.5t7.5 198.5v749q0 74 -2 124.5t-8.5 109.5t-19 97t-34.5 76t-54 59.5t-78 35t-105 13.5t-106 -13t-80.5 -35.5t-57 -59.5t-38 -77t-22.5 -96t-11 -109.5t-3 -124.5v-749q0 -116 8 -198t28 -150t55.5 -108t89.5 -61.5t130 -21.5z" horiz-adv-x="891"/>
<glyph glyph-name="Otilde" unicode="Õ" d="M587 1904q53 0 82.5 27t58.5 118l9 26l-105 29q-14 -41 -26.5 -55t-29.5 -17h-4q-21 0 -113.5 36t-136.5 36q-27 0 -39.5 -0.5t-35.5 -7.5t-36.5 -20t-29.5 -39.5t-27 -65.5l93 -46q15 30 25.5 43t25.5 16q7 2 23 2q41 0 131 -41t135 -41zM447 102q-51 0 -81.5 19 t-49 69.5t-25 126t-6.5 202.5v762q0 204 36 290.5t133 86.5q91 0 121.5 -84t30.5 -294v-761q0 -126 -6.5 -202.5t-25 -126.5t-48.5 -69t-79 -19zM447 -20q76 0 130 21.5t88.5 61.5t54.5 108t27.5 149.5t7.5 198.5v749q0 74 -2 124.5t-8.5 109.5t-19 97t-34.5 76t-54 59.5 t-78 35t-105 13.5t-106 -13t-80.5 -35.5t-57 -59.5t-38 -77t-22.5 -96t-11 -109.5t-3 -124.5v-749q0 -116 8 -198t28 -150t55.5 -108t89.5 -61.5t130 -21.5z" horiz-adv-x="891"/>
<glyph glyph-name="Odieresis" unicode="Ö" d="M139 1904h182v133h-182v-133zM569 1904h182v133h-182v-133zM447 102q-51 0 -81.5 19t-49 69.5t-25 126t-6.5 202.5v762q0 204 36 290.5t133 86.5q91 0 121.5 -84t30.5 -294v-761q0 -126 -6.5 -202.5t-25 -126.5t-48.5 -69t-79 -19zM447 -20q76 0 130 21.5t88.5 61.5 t54.5 108t27.5 149.5t7.5 198.5v749q0 74 -2 124.5t-8.5 109.5t-19 97t-34.5 76t-54 59.5t-78 35t-105 13.5t-106 -13t-80.5 -35.5t-57 -59.5t-38 -77t-22.5 -96t-11 -109.5t-3 -124.5v-749q0 -116 8 -198t28 -150t55.5 -108t89.5 -61.5t130 -21.5z" horiz-adv-x="891"/>
<glyph glyph-name="multiply" unicode="×" d="M168 394l187 188l187 -188l84 84l-188 187l188 187l-84 84l-187 -188l-187 188l-84 -84l188 -187l-188 -187z" horiz-adv-x="710"/>
<glyph glyph-name="Oslash" unicode="Ø" d="M256 -225l477 2166l-67 15l-469 -2162zM447 102q-51 0 -81.5 19t-49 69.5t-25 126t-6.5 202.5v762q0 204 36 290.5t133 86.5q91 0 121.5 -84t30.5 -294v-761q0 -126 -6.5 -202.5t-25 -126.5t-48.5 -69t-79 -19zM447 -20q76 0 130 21.5t88.5 61.5t54.5 108t27.5 149.5 t7.5 198.5v749q0 74 -2 124.5t-8.5 109.5t-19 97t-34.5 76t-54 59.5t-78 35t-105 13.5t-106 -13t-80.5 -35.5t-57 -59.5t-38 -77t-22.5 -96t-11 -109.5t-3 -124.5v-749q0 -116 8 -198t28 -150t55.5 -108t89.5 -61.5t130 -21.5z" horiz-adv-x="891"/>
<glyph glyph-name="Ugrave" unicode="Ù" d="M423 1904h69l-94 332h-160zM459 -20q93 0 153 27.5t94.5 89.5t47.5 145.5t13 209.5v1308h-149v-1304q0 -87 -1 -127t-9 -94.5t-24 -76.5t-46.5 -39t-77.5 -17q-33 0 -58.5 8.5t-42.5 21t-29 38.5t-18.5 50t-9.5 67t-4 77.5t-1 92.5v1303h-149v-1308q0 -126 13.5 -210 t48.5 -145t95.5 -89t153.5 -28z" horiz-adv-x="915"/>
<glyph glyph-name="Uacute" unicode="Ú" d="M424 1904h68l158 398h-144zM459 -20q93 0 153 27.5t94.5 89.5t47.5 145.5t13 209.5v1308h-149v-1304q0 -87 -1 -127t-9 -94.5t-24 -76.5t-46.5 -39t-77.5 -17q-33 0 -58.5 8.5t-42.5 21t-29 38.5t-18.5 50t-9.5 67t-4 77.5t-1 92.5v1303h-149v-1308q0 -126 13.5 -210 t48.5 -145t95.5 -89t153.5 -28z" horiz-adv-x="915"/>
<glyph glyph-name="Ucircumflex" unicode="Û" d="M254 1904h118l86 175l86 -175h117l-120 254h-166zM459 -20q93 0 153 27.5t94.5 89.5t47.5 145.5t13 209.5v1308h-149v-1304q0 -87 -1 -127t-9 -94.5t-24 -76.5t-46.5 -39t-77.5 -17q-33 0 -58.5 8.5t-42.5 21t-29 38.5t-18.5 50t-9.5 67t-4 77.5t-1 92.5v1303h-149v-1308 q0 -126 13.5 -210t48.5 -145t95.5 -89t153.5 -28z" horiz-adv-x="915"/>
<glyph glyph-name="Udieresis" unicode="Ü" d="M151 1904h182v133h-182v-133zM581 1904h182v133h-182v-133zM459 -20q93 0 153 27.5t94.5 89.5t47.5 145.5t13 209.5v1308h-149v-1304q0 -87 -1 -127t-9 -94.5t-24 -76.5t-46.5 -39t-77.5 -17q-33 0 -58.5 8.5t-42.5 21t-29 38.5t-18.5 50t-9.5 67t-4 77.5t-1 92.5v1303 h-149v-1308q0 -126 13.5 -210t48.5 -145t95.5 -89t153.5 -28z" horiz-adv-x="915"/>
<glyph glyph-name="Yacute" unicode="Ý" d="M359 1904h68l158 398h-144zM334 0h149v773l287 987h-154l-206 -778h-3l-241 778h-150l318 -988v-772z" horiz-adv-x="786"/>
<glyph glyph-name="Thorn" unicode="Þ" d="M166 0h149v468h148q76 0 130.5 21.5t90 62t56.5 108t29 150t8 197.5v20q0 72 -2 122.5t-9 107.5t-20 95.5t-35.5 75.5t-54.5 59t-78.5 35t-105.5 13h-157v225h-149v-1760zM315 594v817h165q89 0 119 -83t30 -286v-36q0 -239 -31.5 -325.5t-123.5 -86.5h-159z" horiz-adv-x="865"/>
<glyph glyph-name="germandbls" unicode="ß" d="M157 0h147v1500q0 108 33 147.5t120 39.5q102 0 138.5 -39t36.5 -148v-330q0 -96 -46 -134.5t-159 -38.5v-108q147 0 203.5 -53t56.5 -180v-261q0 -65 -3 -105.5t-13 -77t-27.5 -55.5t-48.5 -33.5t-73 -19t-104 -4.5v-100h104q50 0 90 7t70.5 18t54 32.5t39.5 42t27 55.5 t17.5 64.5t9.5 76.5t4 84.5t1 95.5v77q0 135 -21 212t-69.5 117.5t-138.5 62.5q99 32 134 89t35 186v197q0 110 -13.5 177t-51.5 111.5t-100.5 61t-165.5 16.5q-84 0 -138.5 -17t-84.5 -40t-44.5 -77.5t-17 -98t-2.5 -133.5v-1417z" horiz-adv-x="933"/>
<glyph glyph-name="agrave" unicode="à" d="M385 1640h69l-94 332h-160zM366 -11q81 0 132.5 41.5t64.5 81.5v-112h149v976v14q0 74 -0.5 109.5t-2.5 94.5t-7 86.5t-14.5 70t-23.5 61.5t-34.5 44.5t-48.5 35.5t-65 18t-83 8t-83.5 -8.5t-65.5 -22t-49.5 -37.5t-36 -47t-25 -58.5t-16 -64.5t-8.5 -73t-3.5 -76 t-0.5 -80v-40h150v37q0 198 24.5 268.5t113.5 70.5q19 0 34.5 -2.5t28 -10t22 -14.5t16.5 -23t12 -28t8 -36.5t5 -42t3 -50.5t1 -56.5v-65.5v-102l-42 -18q-49 -21 -73 -31.5t-66 -30t-63 -32t-53.5 -33t-48.5 -37.5t-36.5 -41t-30 -48t-16.5 -53.5t-7 -62.5v-192 q0 -189 60.5 -288.5t178.5 -99.5zM393 113q-70 0 -94 61t-24 216v119q0 38 1.5 65t9 52.5t14.5 41.5t26.5 35.5t35.5 31.5t51.5 31t65 32.5t84.5 38.5v-626q-20 -36 -68 -67t-102 -31z" horiz-adv-x="844"/>
<glyph glyph-name="aacute" unicode="á" d="M386 1640h68l158 398h-144zM366 -11q81 0 132.5 41.5t64.5 81.5v-112h149v976v14q0 74 -0.5 109.5t-2.5 94.5t-7 86.5t-14.5 70t-23.5 61.5t-34.5 44.5t-48.5 35.5t-65 18t-83 8t-83.5 -8.5t-65.5 -22t-49.5 -37.5t-36 -47t-25 -58.5t-16 -64.5t-8.5 -73t-3.5 -76 t-0.5 -80v-40h150v37q0 198 24.5 268.5t113.5 70.5q19 0 34.5 -2.5t28 -10t22 -14.5t16.5 -23t12 -28t8 -36.5t5 -42t3 -50.5t1 -56.5v-65.5v-102l-42 -18q-49 -21 -73 -31.5t-66 -30t-63 -32t-53.5 -33t-48.5 -37.5t-36.5 -41t-30 -48t-16.5 -53.5t-7 -62.5v-192 q0 -189 60.5 -288.5t178.5 -99.5zM393 113q-70 0 -94 61t-24 216v119q0 38 1.5 65t9 52.5t14.5 41.5t26.5 35.5t35.5 31.5t51.5 31t65 32.5t84.5 38.5v-626q-20 -36 -68 -67t-102 -31z" horiz-adv-x="844"/>
<glyph glyph-name="acircumflex" unicode="â" d="M216 1640h118l86 175l86 -175h117l-120 254h-166zM366 -11q81 0 132.5 41.5t64.5 81.5v-112h149v976v14q0 74 -0.5 109.5t-2.5 94.5t-7 86.5t-14.5 70t-23.5 61.5t-34.5 44.5t-48.5 35.5t-65 18t-83 8t-83.5 -8.5t-65.5 -22t-49.5 -37.5t-36 -47t-25 -58.5t-16 -64.5 t-8.5 -73t-3.5 -76t-0.5 -80v-40h150v37q0 198 24.5 268.5t113.5 70.5q19 0 34.5 -2.5t28 -10t22 -14.5t16.5 -23t12 -28t8 -36.5t5 -42t3 -50.5t1 -56.5v-65.5v-102l-42 -18q-49 -21 -73 -31.5t-66 -30t-63 -32t-53.5 -33t-48.5 -37.5t-36.5 -41t-30 -48t-16.5 -53.5 t-7 -62.5v-192q0 -189 60.5 -288.5t178.5 -99.5zM393 113q-70 0 -94 61t-24 216v119q0 38 1.5 65t9 52.5t14.5 41.5t26.5 35.5t35.5 31.5t51.5 31t65 32.5t84.5 38.5v-626q-20 -36 -68 -67t-102 -31z" horiz-adv-x="844"/>
<glyph glyph-name="atilde" unicode="ã" d="M561 1640q53 0 82.5 27t58.5 118l9 26l-105 29q-14 -41 -26.5 -55t-29.5 -17h-4q-21 0 -113.5 36t-136.5 36q-27 0 -39.5 -0.5t-35.5 -7.5t-36.5 -20t-29.5 -39.5t-27 -65.5l93 -46q15 30 25.5 43t25.5 16q7 2 23 2q41 0 131 -41t135 -41zM366 -11q81 0 132.5 41.5 t64.5 81.5v-112h149v976v14q0 74 -0.5 109.5t-2.5 94.5t-7 86.5t-14.5 70t-23.5 61.5t-34.5 44.5t-48.5 35.5t-65 18t-83 8t-83.5 -8.5t-65.5 -22t-49.5 -37.5t-36 -47t-25 -58.5t-16 -64.5t-8.5 -73t-3.5 -76t-0.5 -80v-40h150v37q0 198 24.5 268.5t113.5 70.5 q19 0 34.5 -2.5t28 -10t22 -14.5t16.5 -23t12 -28t8 -36.5t5 -42t3 -50.5t1 -56.5v-65.5v-102l-42 -18q-49 -21 -73 -31.5t-66 -30t-63 -32t-53.5 -33t-48.5 -37.5t-36.5 -41t-30 -48t-16.5 -53.5t-7 -62.5v-192q0 -189 60.5 -288.5t178.5 -99.5zM393 113q-70 0 -94 61 t-24 216v119q0 38 1.5 65t9 52.5t14.5 41.5t26.5 35.5t35.5 31.5t51.5 31t65 32.5t84.5 38.5v-626q-20 -36 -68 -67t-102 -31z" horiz-adv-x="844"/>
<glyph glyph-name="adieresis" unicode="ä" d="M114 1640h182v133h-182v-133zM544 1640h182v133h-182v-133zM366 -11q81 0 132.5 41.5t64.5 81.5v-112h149v976v14q0 74 -0.5 109.5t-2.5 94.5t-7 86.5t-14.5 70t-23.5 61.5t-34.5 44.5t-48.5 35.5t-65 18t-83 8t-83.5 -8.5t-65.5 -22t-49.5 -37.5t-36 -47t-25 -58.5 t-16 -64.5t-8.5 -73t-3.5 -76t-0.5 -80v-40h150v37q0 198 24.5 268.5t113.5 70.5q19 0 34.5 -2.5t28 -10t22 -14.5t16.5 -23t12 -28t8 -36.5t5 -42t3 -50.5t1 -56.5v-65.5v-102l-42 -18q-49 -21 -73 -31.5t-66 -30t-63 -32t-53.5 -33t-48.5 -37.5t-36.5 -41t-30 -48 t-16.5 -53.5t-7 -62.5v-192q0 -189 60.5 -288.5t178.5 -99.5zM393 113q-70 0 -94 61t-24 216v119q0 38 1.5 65t9 52.5t14.5 41.5t26.5 35.5t35.5 31.5t51.5 31t65 32.5t84.5 38.5v-626q-20 -36 -68 -67t-102 -31z" horiz-adv-x="844"/>
<glyph glyph-name="aring" unicode="å" d="M420 1691q-45 0 -71 30.5t-26 71.5t26 71.5t71 30.5q47 0 73.5 -30t26.5 -72t-26.5 -72t-73.5 -30zM420 1640q81 0 125 45.5t44 106.5t-44 107.5t-125 46.5q-80 0 -124.5 -46.5t-44.5 -107.5q0 -60 44.5 -106t124.5 -46zM366 -11q81 0 132.5 41.5t64.5 81.5v-112h149v976 v14q0 74 -0.5 109.5t-2.5 94.5t-7 86.5t-14.5 70t-23.5 61.5t-34.5 44.5t-48.5 35.5t-65 18t-83 8t-83.5 -8.5t-65.5 -22t-49.5 -37.5t-36 -47t-25 -58.5t-16 -64.5t-8.5 -73t-3.5 -76t-0.5 -80v-40h150v37q0 198 24.5 268.5t113.5 70.5q19 0 34.5 -2.5t28 -10t22 -14.5 t16.5 -23t12 -28t8 -36.5t5 -42t3 -50.5t1 -56.5v-65.5v-102l-42 -18q-49 -21 -73 -31.5t-66 -30t-63 -32t-53.5 -33t-48.5 -37.5t-36.5 -41t-30 -48t-16.5 -53.5t-7 -62.5v-192q0 -189 60.5 -288.5t178.5 -99.5zM393 113q-70 0 -94 61t-24 216v119q0 38 1.5 65t9 52.5 t14.5 41.5t26.5 35.5t35.5 31.5t51.5 31t65 32.5t84.5 38.5v-626q-20 -36 -68 -67t-102 -31z" horiz-adv-x="844"/>
<glyph glyph-name="ae" unicode="æ" d="M851 -18q51 0 91.5 8.5t69 31.5t49 44t33 64.5t20 74t10.5 92t3.5 97.5t0.5 111v51h-145v-117q0 -60 -1 -97t-5 -79t-12.5 -65.5t-22.5 -45t-36 -30.5t-52 -9q-40 0 -66 14t-41.5 36.5t-23 68t-9.5 90t-2 121.5v311h420v248q0 79 -1 121.5t-6 106.5t-15 98.5t-30 76.5 t-48.5 63t-72 35.5t-99.5 14.5q-150 0 -222 -91q-23 46 -71.5 68.5t-133.5 22.5q-46 0 -83.5 -8.5t-65.5 -22t-49.5 -37.5t-36 -47t-25 -58.5t-16 -64.5t-8.5 -73t-3.5 -76t-0.5 -80v-40h150v36q0 82 2.5 130.5t10 94t22.5 68t40 35.5t63 13q32 0 54 -7t37 -26.5t23.5 -40.5 t12.5 -63.5t5 -80.5t1 -105v-109q-188 -83 -230 -105q-139 -74 -183 -164q-26 -54 -26 -121v-191q0 -386 228 -386q64 0 138 37t116 77q34 -61 91.5 -91t150.5 -30zM393 112q-70 0 -94 61t-24 217v121q0 37 1.5 64t9.5 52.5t15 42t27 35.5t36.5 31.5t52 31.5t65 33t84.5 39 v-629q-20 -35 -69.5 -67t-103.5 -32zM712 874v189q0 81 5 134t20 99.5t45.5 68.5t77.5 22q30 0 51.5 -7.5t35 -29.5t21 -40.5t11 -62.5t4 -73t0.5 -92v-5v-4.5v-4.5v-194h-271z" horiz-adv-x="1236"/>
<glyph glyph-name="ccedilla" unicode="ç" d="M351 -596q115 0 192 65.5t77 154.5q0 63 -44 123t-135 106l-9 147h-57l-40 -196q67 -15 113.5 -57.5t46.5 -105.5q0 -65 -50.5 -103.5t-180.5 -38.5v-86q47 -9 87 -9zM418 -18q59 0 104 15t75 34.5t50 63t30.5 76.5t15.5 101.5t6 110t1 127.5v7v45h-151v-113 q0 -53 -0.5 -85t-3.5 -71.5t-8 -62t-14.5 -47t-23 -36.5t-34 -20t-46.5 -8q-33 0 -56.5 8t-39 28t-25 43.5t-14 66.5t-6 83.5t-1.5 106.5v602q0 66 2.5 110t11.5 88t25 69.5t43.5 41t66.5 15.5q30 0 51.5 -7.5t35 -29t21 -40.5t11 -63.5t4 -74.5t0.5 -96v-5v-92h151v47 q0 80 -1 121.5t-6 104.5t-15.5 95t-30 72t-48.5 59t-72.5 32.5t-101.5 13.5q-64 0 -113 -16.5t-81 -50.5t-53 -75t-31.5 -100.5t-14.5 -116t-4 -131.5v-517q0 -76 1.5 -127t8 -112t18.5 -100t33.5 -78.5t52 -61.5t74.5 -36t102 -14z" horiz-adv-x="803"/>
<glyph glyph-name="egrave" unicode="è" d="M378 1640h69l-94 332h-160zM421 -18q50 0 90 8.5t68 31.5t48.5 44t32.5 64t19.5 73.5t10.5 91t3.5 96.5t0.5 109v7v49h-145v-112q0 -60 -1 -97.5t-5 -80t-12.5 -67t-23 -46.5t-36.5 -31t-52 -9q-39 0 -65 14t-41.5 37.5t-23 69t-10 92.5t-2.5 124v302h421v250 q0 92 -1.5 141t-9 120t-25 108t-46.5 76t-77 55t-114 16t-115.5 -17t-81.5 -52t-52.5 -76.5t-30.5 -103.5t-13.5 -119t-3.5 -136v-503q0 -76 1.5 -127.5t8.5 -112t19 -99.5t33.5 -78.5t52 -61.5t75.5 -36t103 -14zM277 877v183q0 54 2 93t7.5 78.5t16 66t26.5 48t40.5 31.5 t56.5 10q30 0 51.5 -7.5t35 -29.5t21 -41.5t11 -64t4 -74t0.5 -92.5v-10v-191h-272z" horiz-adv-x="802"/>
<glyph glyph-name="eacute" unicode="é" d="M421 -18q50 0 90 8.5t68 31.5t48.5 44t32.5 64t19.5 73.5t10.5 91t3.5 96.5t0.5 109v7v49h-145v-112q0 -60 -1 -97.5t-5 -80t-12.5 -67t-23 -46.5t-36.5 -31t-52 -9q-39 0 -65 14t-41.5 37.5t-23 69t-10 92.5t-2.5 124v302h421v250q0 92 -1.5 141t-9 120t-25 108 t-46.5 76t-77 55t-114 16t-115.5 -17t-81.5 -52t-52.5 -76.5t-30.5 -103.5t-13.5 -119t-3.5 -136v-503q0 -76 1.5 -127.5t8.5 -112t19 -99.5t33.5 -78.5t52 -61.5t75.5 -36t103 -14zM277 877v183q0 54 2 93t7.5 78.5t16 66t26.5 48t40.5 31.5t56.5 10q30 0 51.5 -7.5 t35 -29.5t21 -41.5t11 -64t4 -74t0.5 -92.5v-10v-191h-272zM379 1640h68l158 398h-144z" horiz-adv-x="802"/>
<glyph glyph-name="ecircumflex" unicode="ê" d="M209 1640h118l86 175l86 -175h117l-120 254h-166zM421 -18q50 0 90 8.5t68 31.5t48.5 44t32.5 64t19.5 73.5t10.5 91t3.5 96.5t0.5 109v7v49h-145v-112q0 -60 -1 -97.5t-5 -80t-12.5 -67t-23 -46.5t-36.5 -31t-52 -9q-39 0 -65 14t-41.5 37.5t-23 69t-10 92.5t-2.5 124 v302h421v250q0 92 -1.5 141t-9 120t-25 108t-46.5 76t-77 55t-114 16t-115.5 -17t-81.5 -52t-52.5 -76.5t-30.5 -103.5t-13.5 -119t-3.5 -136v-503q0 -76 1.5 -127.5t8.5 -112t19 -99.5t33.5 -78.5t52 -61.5t75.5 -36t103 -14zM277 877v183q0 54 2 93t7.5 78.5t16 66 t26.5 48t40.5 31.5t56.5 10q30 0 51.5 -7.5t35 -29.5t21 -41.5t11 -64t4 -74t0.5 -92.5v-10v-191h-272z" horiz-adv-x="802"/>
<glyph glyph-name="edieresis" unicode="ë" d="M421 -18q50 0 90 8.5t68 31.5t48.5 44t32.5 64t19.5 73.5t10.5 91t3.5 96.5t0.5 109v7v49h-145v-112q0 -60 -1 -97.5t-5 -80t-12.5 -67t-23 -46.5t-36.5 -31t-52 -9q-39 0 -65 14t-41.5 37.5t-23 69t-10 92.5t-2.5 124v302h421v250q0 92 -1.5 141t-9 120t-25 108 t-46.5 76t-77 55t-114 16t-115.5 -17t-81.5 -52t-52.5 -76.5t-30.5 -103.5t-13.5 -119t-3.5 -136v-503q0 -76 1.5 -127.5t8.5 -112t19 -99.5t33.5 -78.5t52 -61.5t75.5 -36t103 -14zM277 877v183q0 54 2 93t7.5 78.5t16 66t26.5 48t40.5 31.5t56.5 10q30 0 51.5 -7.5 t35 -29.5t21 -41.5t11 -64t4 -74t0.5 -92.5v-10v-191h-272zM107 1640h182v133h-182v-133zM537 1640h182v133h-182v-133z" horiz-adv-x="802"/>
<glyph glyph-name="igrave" unicode="ì" d="M202 1640h69l-94 332h-160zM162 0h150v1500h-150v-1500z" horiz-adv-x="474"/>
<glyph glyph-name="iacute" unicode="í" d="M162 0h150v1500h-150v-1500zM203 1640h68l158 398h-144z" horiz-adv-x="474"/>
<glyph glyph-name="icircumflex" unicode="î" d="M33 1640h118l86 175l86 -175h117l-120 254h-166zM162 0h150v1500h-150v-1500z" horiz-adv-x="474"/>
<glyph glyph-name="idieresis" unicode="ï" d="M162 0h150v1500h-150v-1500zM-69 1640h182v133h-182v-133zM361 1640h182v133h-182v-133z" horiz-adv-x="474"/>
<glyph glyph-name="eth" unicode="ð" d="M431 -20q80 0 139.5 27t95.5 72.5t58.5 115t30.5 143.5t8 168v452l-1 28q-13 479 -30 530l199 119l-53 100l-200 -119q-130 169 -385 164v-140q65 3 132.5 -22t117.5 -84l-225 -135l53 -100l225 135q5 -19 10 -125t8 -203l2 -97q-30 43 -82.5 67.5t-100.5 26.5 q-185 8 -253.5 -114.5t-68.5 -431.5v-115q0 -117 14.5 -198.5t50 -143t98.5 -91t157 -29.5zM431 107q-69 0 -104.5 28t-51 99t-15.5 212v99q0 250 33 341.5t132 91.5q42 0 83.5 -12t72 -25.5t33.5 -14.5v-421q0 -219 -37.5 -308.5t-145.5 -89.5z" horiz-adv-x="910"/>
<glyph glyph-name="ntilde" unicode="ñ" d="M607 1641q53 0 82.5 27t58.5 118l9 26l-105 29q-14 -41 -26.5 -55t-29.5 -17h-4q-21 0 -113.5 36t-136.5 36q-27 0 -39.5 -0.5t-35.5 -7.5t-36.5 -20t-29.5 -39.5t-27 -65.5l93 -46q15 30 25.5 43t25.5 16q7 2 23 2q41 0 131 -41t135 -41zM160 0h149v1220q0 167 169 167 q66 0 105.5 -38.5t39.5 -125.5v-1223h149v1211q0 154 -60 231t-161 77q-85 0 -153.5 -49.5t-88.5 -116.5v147h-149v-1500z" horiz-adv-x="920"/>
<glyph glyph-name="ograve" unicode="ò" d="M426 113q-39 0 -66.5 17t-43.5 44.5t-25 75t-11.5 95.5t-2.5 118v590q0 67 2.5 111.5t11 90.5t24.5 72.5t43.5 43t67.5 16.5q45 0 74.5 -23t43.5 -71.5t19 -102.5t5 -137v-590q0 -87 -5 -144.5t-19.5 -108t-43.5 -74t-74 -23.5zM426 -18q41 0 75.5 6t61.5 20t48.5 30.5 t37.5 43.5t27.5 51.5t18.5 62t11.5 69t7 78t3 83t0.5 89.5v503q0 69 -2 117.5t-8.5 104.5t-19 94t-34 75.5t-52 59.5t-74.5 35.5t-101 13.5q-66 0 -115.5 -16.5t-81.5 -51t-52.5 -75.5t-31 -102.5t-14 -118.5t-3.5 -136v-503q0 -66 1.5 -113t6 -101t13.5 -91.5t24 -77 t37 -64.5t52.5 -46t71.5 -30.5t92 -9.5zM388 1640h69l-94 332h-160z" horiz-adv-x="845"/>
<glyph glyph-name="oacute" unicode="ó" d="M426 113q-39 0 -66.5 17t-43.5 44.5t-25 75t-11.5 95.5t-2.5 118v590q0 67 2.5 111.5t11 90.5t24.5 72.5t43.5 43t67.5 16.5q45 0 74.5 -23t43.5 -71.5t19 -102.5t5 -137v-590q0 -87 -5 -144.5t-19.5 -108t-43.5 -74t-74 -23.5zM426 -18q41 0 75.5 6t61.5 20t48.5 30.5 t37.5 43.5t27.5 51.5t18.5 62t11.5 69t7 78t3 83t0.5 89.5v503q0 69 -2 117.5t-8.5 104.5t-19 94t-34 75.5t-52 59.5t-74.5 35.5t-101 13.5q-66 0 -115.5 -16.5t-81.5 -51t-52.5 -75.5t-31 -102.5t-14 -118.5t-3.5 -136v-503q0 -66 1.5 -113t6 -101t13.5 -91.5t24 -77 t37 -64.5t52.5 -46t71.5 -30.5t92 -9.5zM388 1640h68l158 398h-144z" horiz-adv-x="845"/>
<glyph glyph-name="ocircumflex" unicode="ô" d="M219 1640h118l86 175l86 -175h117l-120 254h-166zM426 113q-39 0 -66.5 17t-43.5 44.5t-25 75t-11.5 95.5t-2.5 118v590q0 67 2.5 111.5t11 90.5t24.5 72.5t43.5 43t67.5 16.5q45 0 74.5 -23t43.5 -71.5t19 -102.5t5 -137v-590q0 -87 -5 -144.5t-19.5 -108t-43.5 -74 t-74 -23.5zM426 -18q41 0 75.5 6t61.5 20t48.5 30.5t37.5 43.5t27.5 51.5t18.5 62t11.5 69t7 78t3 83t0.5 89.5v503q0 69 -2 117.5t-8.5 104.5t-19 94t-34 75.5t-52 59.5t-74.5 35.5t-101 13.5q-66 0 -115.5 -16.5t-81.5 -51t-52.5 -75.5t-31 -102.5t-14 -118.5t-3.5 -136 v-503q0 -66 1.5 -113t6 -101t13.5 -91.5t24 -77t37 -64.5t52.5 -46t71.5 -30.5t92 -9.5z" horiz-adv-x="845"/>
<glyph glyph-name="otilde" unicode="õ" d="M564 1640q53 0 82.5 27t58.5 118l9 26l-105 29q-14 -41 -26.5 -55t-29.5 -17h-4q-21 0 -113.5 36t-136.5 36q-27 0 -39.5 -0.5t-35.5 -7.5t-36.5 -20t-29.5 -39.5t-27 -65.5l93 -46q15 30 25.5 43t25.5 16q7 2 23 2q41 0 131 -41t135 -41zM426 113q-39 0 -66.5 17 t-43.5 44.5t-25 75t-11.5 95.5t-2.5 118v590q0 67 2.5 111.5t11 90.5t24.5 72.5t43.5 43t67.5 16.5q45 0 74.5 -23t43.5 -71.5t19 -102.5t5 -137v-590q0 -87 -5 -144.5t-19.5 -108t-43.5 -74t-74 -23.5zM426 -18q41 0 75.5 6t61.5 20t48.5 30.5t37.5 43.5t27.5 51.5t18.5 62 t11.5 69t7 78t3 83t0.5 89.5v503q0 69 -2 117.5t-8.5 104.5t-19 94t-34 75.5t-52 59.5t-74.5 35.5t-101 13.5q-66 0 -115.5 -16.5t-81.5 -51t-52.5 -75.5t-31 -102.5t-14 -118.5t-3.5 -136v-503q0 -66 1.5 -113t6 -101t13.5 -91.5t24 -77t37 -64.5t52.5 -46t71.5 -30.5 t92 -9.5z" horiz-adv-x="845"/>
<glyph glyph-name="odieresis" unicode="ö" d="M426 113q-39 0 -66.5 17t-43.5 44.5t-25 75t-11.5 95.5t-2.5 118v590q0 67 2.5 111.5t11 90.5t24.5 72.5t43.5 43t67.5 16.5q45 0 74.5 -23t43.5 -71.5t19 -102.5t5 -137v-590q0 -87 -5 -144.5t-19.5 -108t-43.5 -74t-74 -23.5zM426 -18q41 0 75.5 6t61.5 20t48.5 30.5 t37.5 43.5t27.5 51.5t18.5 62t11.5 69t7 78t3 83t0.5 89.5v503q0 69 -2 117.5t-8.5 104.5t-19 94t-34 75.5t-52 59.5t-74.5 35.5t-101 13.5q-66 0 -115.5 -16.5t-81.5 -51t-52.5 -75.5t-31 -102.5t-14 -118.5t-3.5 -136v-503q0 -66 1.5 -113t6 -101t13.5 -91.5t24 -77 t37 -64.5t52.5 -46t71.5 -30.5t92 -9.5zM117 1640h182v133h-182v-133zM547 1640h182v133h-182v-133z" horiz-adv-x="845"/>
<glyph glyph-name="divide" unicode="÷" d="M343 327h128v208h-128v-208zM94 708h616v115h-616v-115zM343 976h128v198h-128v-198z" horiz-adv-x="804"/>
<glyph glyph-name="oslash" unicode="ø" d="M284 -223l338 1961l-61 8l-338 -1961zM426 113q-39 0 -66.5 17t-43.5 44.5t-25 75t-11.5 95.5t-2.5 118v590q0 67 2.5 111.5t11 90.5t24.5 72.5t43.5 43t67.5 16.5q45 0 74.5 -23t43.5 -71.5t19 -102.5t5 -137v-590q0 -87 -5 -144.5t-19.5 -108t-43.5 -74t-74 -23.5z M426 -18q41 0 75.5 6t61.5 20t48.5 30.5t37.5 43.5t27.5 51.5t18.5 62t11.5 69t7 78t3 83t0.5 89.5v503q0 69 -2 117.5t-8.5 104.5t-19 94t-34 75.5t-52 59.5t-74.5 35.5t-101 13.5q-66 0 -115.5 -16.5t-81.5 -51t-52.5 -75.5t-31 -102.5t-14 -118.5t-3.5 -136v-503 q0 -66 1.5 -113t6 -101t13.5 -91.5t24 -77t37 -64.5t52.5 -46t71.5 -30.5t92 -9.5z" horiz-adv-x="845"/>
<glyph glyph-name="ugrave" unicode="ù" d="M385 -20q83 0 145.5 51t81.5 119v-150h149v1500h-151l2 -1197q0 -85 -45 -134.5t-123 -49.5q-69 0 -108 43.5t-39 129.5v1208h-149v-1215q0 -84 23 -147t60.5 -95.5t76 -47.5t77.5 -15zM420 1640h69l-94 332h-160z" horiz-adv-x="914"/>
<glyph glyph-name="uacute" unicode="ú" d="M385 -20q83 0 145.5 51t81.5 119v-150h149v1500h-151l2 -1197q0 -85 -45 -134.5t-123 -49.5q-69 0 -108 43.5t-39 129.5v1208h-149v-1215q0 -84 23 -147t60.5 -95.5t76 -47.5t77.5 -15zM420 1640h68l158 398h-144z" horiz-adv-x="914"/>
<glyph glyph-name="ucircumflex" unicode="û" d="M251 1640h118l86 175l86 -175h117l-120 254h-166zM385 -20q83 0 145.5 51t81.5 119v-150h149v1500h-151l2 -1197q0 -85 -45 -134.5t-123 -49.5q-69 0 -108 43.5t-39 129.5v1208h-149v-1215q0 -84 23 -147t60.5 -95.5t76 -47.5t77.5 -15z" horiz-adv-x="914"/>
<glyph glyph-name="udieresis" unicode="ü" d="M385 -20q83 0 145.5 51t81.5 119v-150h149v1500h-151l2 -1197q0 -85 -45 -134.5t-123 -49.5q-69 0 -108 43.5t-39 129.5v1208h-149v-1215q0 -84 23 -147t60.5 -95.5t76 -47.5t77.5 -15zM149 1640h182v133h-182v-133zM579 1640h182v133h-182v-133z" horiz-adv-x="914"/>
<glyph glyph-name="yacute" unicode="ý" d="M133 -238h124q39 0 66 4.5t47.5 18.5t32.5 29t22 47t15.5 60.5t13.5 81.5l239 1497h-149l-107 -793l-43 -408h-13l-48 408l-119 793h-150l250 -1462q5 -35 7 -47t3.5 -35t-2 -35t-11.5 -20q-17 -11 -123 -11h-55v-128zM344 1640h68l158 398h-144z" horiz-adv-x="745"/>
<glyph glyph-name="thorn" unicode="þ" d="M160 -265h150v373q20 -53 64 -88.5t96 -35.5q81 0 137 36t86 105.5t42 153t12 196.5v538q0 94 -5 162.5t-19.5 135t-40.5 108t-69.5 67t-103.5 25.5q-146 0 -199 -126v398h-150v-2048zM461 106q-89 0 -120 82.5t-31 274.5v596q0 86 7.5 146t19.5 95.5t33.5 55t43 25.5 t54.5 6q29 0 50.5 -9.5t35.5 -31t22.5 -47t13 -66t6 -78t1.5 -93.5v-594q0 -198 -28 -279.5t-108 -82.5z" horiz-adv-x="875"/>
<glyph glyph-name="dotlessi" unicode="ı" d="M162 0h150v1500h-150v-1500z" horiz-adv-x="474"/>
<glyph glyph-name="ring" unicode="˚" d="M463 1528q-45 0 -71 30.5t-26 71.5t26 71.5t71 30.5q47 0 73.5 -30t26.5 -72t-26.5 -72t-73.5 -30zM463 1477q81 0 125 45.5t44 106.5t-44 107.5t-125 46.5q-80 0 -124.5 -46.5t-44.5 -107.5q0 -60 44.5 -106t124.5 -46z" horiz-adv-x="923"/>
<glyph glyph-name="tilde" unicode="˜" d="M483 1583q53 0 82.5 27t58.5 118l9 26l-105 29q-14 -41 -26.5 -55t-29.5 -17h-4q-21 0 -113.5 36t-136.5 36q-27 0 -39.5 -0.5t-35.5 -7.5t-36.5 -20t-29.5 -39.5t-27 -65.5l93 -46q15 30 25.5 43t25.5 16q7 2 23 2q41 0 131 -41t135 -41z" horiz-adv-x="683"/>
<glyph glyph-name="uni0302" unicode="̂" d="M111 1384h118l86 175l86 -175h117l-120 254h-166z" horiz-adv-x="616"/>
</font>
</defs>
</svg>
